G04*
G04 #@! TF.GenerationSoftware,Altium Limited,Altium Designer,20.0.13 (296)*
G04*
G04 Layer_Color=65535*
%FSLAX25Y25*%
%MOIN*%
G70*
G01*
G75*
%ADD10C,0.02000*%
%ADD11C,0.01575*%
%ADD12C,0.00600*%
%ADD13C,0.00787*%
%ADD14C,0.00800*%
D10*
X419600Y291531D02*
G03*
X419600Y291531I-600J0D01*
G01*
D11*
X435787Y412500D02*
G03*
X435787Y412500I-787J0D01*
G01*
X524287Y410500D02*
G03*
X524287Y410500I-787J0D01*
G01*
X435787Y321000D02*
G03*
X435787Y321000I-787J0D01*
G01*
D12*
X417550Y287000D02*
Y289000D01*
X416550Y290000D02*
X417550Y289000D01*
X405550Y290000D02*
X416550D01*
X405550Y287000D02*
Y290000D01*
Y287000D02*
X417550D01*
D13*
X413555Y299319D02*
X414736D01*
X413555Y301681D02*
X414736D01*
X394055Y315681D02*
X395236D01*
X394055Y313319D02*
X395236D01*
X413410Y277681D02*
X414591D01*
X413410Y275319D02*
X414591D01*
X413410Y270319D02*
X414591D01*
X413410Y272681D02*
X414591D01*
X525319Y274764D02*
Y275945D01*
X527681Y274764D02*
Y275945D01*
X522681Y274909D02*
Y276091D01*
X520319Y274909D02*
Y276091D01*
X378681Y401409D02*
Y402591D01*
X376319Y401409D02*
Y402591D01*
X373681Y401409D02*
Y402591D01*
X371319Y401409D02*
Y402591D01*
X515000Y412500D02*
Y422500D01*
X435000Y412500D02*
X515000D01*
X435000D02*
Y422500D01*
X515000D01*
X435500Y412500D02*
Y422500D01*
X245000Y412500D02*
X435500D01*
X245000D02*
Y422500D01*
X252500D01*
X435500D01*
X533500Y330500D02*
Y410500D01*
X523500D02*
X533500D01*
X523500Y330500D02*
Y410500D01*
Y330500D02*
X533500D01*
X517055Y404319D02*
X518236D01*
X517055Y406681D02*
X518236D01*
X517055Y396681D02*
X518236D01*
X517055Y394319D02*
X518236D01*
X517055Y384319D02*
X518236D01*
X517055Y386681D02*
X518236D01*
X517055Y376681D02*
X518236D01*
X517055Y374319D02*
X518236D01*
X517055Y364319D02*
X518236D01*
X517055Y366681D02*
X518236D01*
X517055Y356681D02*
X518236D01*
X517055Y354319D02*
X518236D01*
X517055Y344319D02*
X518236D01*
X517055Y346681D02*
X518236D01*
X517055Y336681D02*
X518236D01*
X517055Y334319D02*
X518236D01*
X455319Y274264D02*
Y275445D01*
X457681Y274264D02*
Y275445D01*
X465319Y242555D02*
Y243736D01*
X467681Y242555D02*
Y243736D01*
X455319Y242555D02*
Y243736D01*
X457681Y242555D02*
Y243736D01*
X426319Y258910D02*
Y260090D01*
X428681Y258910D02*
Y260090D01*
X421319Y258910D02*
Y260090D01*
X423681Y258910D02*
Y260090D01*
X416319Y258910D02*
Y260090D01*
X418681Y258910D02*
Y260090D01*
X411319Y258910D02*
Y260090D01*
X413681Y258910D02*
Y260090D01*
X531500Y249000D02*
Y269000D01*
X431500Y249000D02*
Y269000D01*
X531500D01*
X431500Y249000D02*
X531500D01*
X252500Y331000D02*
X435500D01*
X245000D02*
X252500D01*
X245000Y321000D02*
Y331000D01*
Y321000D02*
X435500D01*
Y331000D01*
X435000D02*
X515000D01*
X435000Y321000D02*
Y331000D01*
Y321000D02*
X515000D01*
Y331000D01*
D14*
X404001Y300500D02*
Y298000D01*
X404500Y297500D01*
X405500D01*
X406000Y298000D01*
Y300500D01*
X407000Y297500D02*
X407999D01*
X407500D01*
Y300500D01*
X407000Y300000D01*
X415000Y306000D02*
X414500Y306500D01*
X413500D01*
X413001Y306000D01*
Y304000D01*
X413500Y303501D01*
X414500D01*
X415000Y304000D01*
X416000Y303501D02*
X416999D01*
X416500D01*
Y306500D01*
X416000Y306000D01*
X400501Y312501D02*
Y315499D01*
X402000D01*
X402500Y315000D01*
Y314000D01*
X402000Y313500D01*
X400501D01*
X401501D02*
X402500Y312501D01*
X405499D02*
X403500D01*
X405499Y314500D01*
Y315000D01*
X404999Y315499D01*
X404000D01*
X403500Y315000D01*
X420501Y275001D02*
Y277999D01*
X422000D01*
X422500Y277500D01*
Y276500D01*
X422000Y276000D01*
X420501D01*
X421500D02*
X422500Y275001D01*
X423500D02*
X424499D01*
X424000D01*
Y277999D01*
X423500Y277500D01*
X422500Y272000D02*
X422000Y272499D01*
X421001D01*
X420501Y272000D01*
Y270000D01*
X421001Y269500D01*
X422000D01*
X422500Y270000D01*
X425499Y269500D02*
X423500D01*
X425499Y271500D01*
Y272000D01*
X424999Y272499D01*
X424000D01*
X423500Y272000D01*
X527499Y281501D02*
X524501D01*
Y283000D01*
X525000Y283500D01*
X526000D01*
X526500Y283000D01*
Y281501D01*
Y282501D02*
X527499Y283500D01*
X524501Y286499D02*
Y284500D01*
X526000D01*
X525500Y285500D01*
Y285999D01*
X526000Y286499D01*
X527000D01*
X527499Y285999D01*
Y285000D01*
X527000Y284500D01*
X522500Y281501D02*
X519500D01*
Y283000D01*
X520000Y283500D01*
X521000D01*
X521500Y283000D01*
Y281501D01*
Y282501D02*
X522500Y283500D01*
X519500Y286499D02*
X520000Y285500D01*
X521000Y284500D01*
X522000D01*
X522500Y285000D01*
Y285999D01*
X522000Y286499D01*
X521500D01*
X521000Y285999D01*
Y284500D01*
X368503Y236749D02*
X367503D01*
X367003Y236250D01*
Y234250D01*
X367503Y233750D01*
X368503D01*
X369003Y234250D01*
Y236250D01*
X368503Y236749D01*
X370002D02*
Y234250D01*
X370502Y233750D01*
X371502D01*
X372002Y234250D01*
Y236749D01*
X373001D02*
X375001D01*
X374001D01*
Y233750D01*
X376000Y233251D02*
X378000D01*
X380999Y236250D02*
X380499Y236749D01*
X379499D01*
X378999Y236250D01*
Y234250D01*
X379499Y233750D01*
X380499D01*
X380999Y234250D01*
Y235250D01*
X379999D01*
X381998Y233750D02*
Y236749D01*
X383998Y233750D01*
Y236749D01*
X384997D02*
Y233750D01*
X386497D01*
X386997Y234250D01*
Y236250D01*
X386497Y236749D01*
X384997D01*
X383999Y400001D02*
X381000D01*
Y401500D01*
X381500Y402000D01*
X382500D01*
X383000Y401500D01*
Y400001D01*
Y401000D02*
X383999Y402000D01*
X381500Y403000D02*
X381000Y403500D01*
Y404499D01*
X381500Y404999D01*
X382000D01*
X382500Y404499D01*
Y404000D01*
Y404499D01*
X383000Y404999D01*
X383500D01*
X383999Y404499D01*
Y403500D01*
X383500Y403000D01*
X369000Y400001D02*
X366001D01*
Y401500D01*
X366500Y402000D01*
X367500D01*
X368000Y401500D01*
Y400001D01*
Y401000D02*
X369000Y402000D01*
Y404499D02*
X366001D01*
X367500Y403000D01*
Y404999D01*
X435501Y407000D02*
Y410000D01*
X437000D01*
X437500Y409500D01*
Y408500D01*
X437000Y408000D01*
X435501D01*
X439999Y407000D02*
Y410000D01*
X438500Y408500D01*
X440499D01*
X245501Y407501D02*
Y410499D01*
X247000D01*
X247500Y410000D01*
Y409000D01*
X247000Y408500D01*
X245501D01*
X250499Y407501D02*
X248500D01*
X250499Y409500D01*
Y410000D01*
X249999Y410499D01*
X249000D01*
X248500Y410000D01*
X526501Y413500D02*
Y416500D01*
X528000D01*
X528500Y416000D01*
Y415000D01*
X528000Y414500D01*
X526501D01*
X531499Y416500D02*
X530500Y416000D01*
X529500Y415000D01*
Y414000D01*
X530000Y413500D01*
X530999D01*
X531499Y414000D01*
Y414500D01*
X530999Y415000D01*
X529500D01*
X503501Y404001D02*
Y406999D01*
X505000D01*
X505500Y406500D01*
Y405500D01*
X505000Y405000D01*
X503501D01*
X504500D02*
X505500Y404001D01*
X506500D02*
X507500D01*
X507000D01*
Y406999D01*
X506500Y406500D01*
X510499Y404001D02*
Y406999D01*
X508999Y405500D01*
X510998D01*
X503501Y394001D02*
Y397000D01*
X505000D01*
X505500Y396500D01*
Y395500D01*
X505000Y395000D01*
X503501D01*
X504500D02*
X505500Y394001D01*
X506500Y396500D02*
X507000Y397000D01*
X507999D01*
X508499Y396500D01*
Y396000D01*
X507999Y395500D01*
X508499Y395000D01*
Y394500D01*
X507999Y394001D01*
X507000D01*
X506500Y394500D01*
Y395000D01*
X507000Y395500D01*
X506500Y396000D01*
Y396500D01*
X507000Y395500D02*
X507999D01*
X503501Y384000D02*
Y387000D01*
X505000D01*
X505500Y386500D01*
Y385500D01*
X505000Y385000D01*
X503501D01*
X504500D02*
X505500Y384000D01*
X506500D02*
X507500D01*
X507000D01*
Y387000D01*
X506500Y386500D01*
X510998Y387000D02*
X508999D01*
Y385500D01*
X509999Y386000D01*
X510499D01*
X510998Y385500D01*
Y384500D01*
X510499Y384000D01*
X509499D01*
X508999Y384500D01*
X503501Y374001D02*
Y376999D01*
X505000D01*
X505500Y376500D01*
Y375500D01*
X505000Y375000D01*
X503501D01*
X504500D02*
X505500Y374001D01*
X506500Y374500D02*
X507000Y374001D01*
X507999D01*
X508499Y374500D01*
Y376500D01*
X507999Y376999D01*
X507000D01*
X506500Y376500D01*
Y376000D01*
X507000Y375500D01*
X508499D01*
X503501Y364001D02*
Y367000D01*
X505000D01*
X505500Y366500D01*
Y365500D01*
X505000Y365000D01*
X503501D01*
X504500D02*
X505500Y364001D01*
X506500D02*
X507500D01*
X507000D01*
Y367000D01*
X506500Y366500D01*
X510998Y367000D02*
X509999Y366500D01*
X508999Y365500D01*
Y364500D01*
X509499Y364001D01*
X510499D01*
X510998Y364500D01*
Y365000D01*
X510499Y365500D01*
X508999D01*
X503251Y354000D02*
Y356999D01*
X504751D01*
X505251Y356500D01*
Y355500D01*
X504751Y355000D01*
X503251D01*
X504251D02*
X505251Y354000D01*
X506250D02*
X507250D01*
X506750D01*
Y356999D01*
X506250Y356500D01*
X508749D02*
X509249Y356999D01*
X510249D01*
X510749Y356500D01*
Y354500D01*
X510249Y354000D01*
X509249D01*
X508749Y354500D01*
Y356500D01*
X503501Y344001D02*
Y347000D01*
X505000D01*
X505500Y346500D01*
Y345500D01*
X505000Y345000D01*
X503501D01*
X504500D02*
X505500Y344001D01*
X506500D02*
X507500D01*
X507000D01*
Y347000D01*
X506500Y346500D01*
X508999Y347000D02*
X510998D01*
Y346500D01*
X508999Y344500D01*
Y344001D01*
X503501Y334000D02*
Y337000D01*
X505000D01*
X505500Y336500D01*
Y335500D01*
X505000Y335000D01*
X503501D01*
X504500D02*
X505500Y334000D01*
X506500D02*
X507500D01*
X507000D01*
Y337000D01*
X506500Y336500D01*
X508999Y334000D02*
X509999D01*
X509499D01*
Y337000D01*
X508999Y336500D01*
X462500Y273001D02*
X459501D01*
Y274500D01*
X460000Y275000D01*
X461000D01*
X461500Y274500D01*
Y273001D01*
Y274001D02*
X462500Y275000D01*
X459501Y276000D02*
Y277999D01*
X460000D01*
X462000Y276000D01*
X462500D01*
X468000Y228251D02*
X465000D01*
Y229751D01*
X465500Y230251D01*
X466500D01*
X467000Y229751D01*
Y228251D01*
Y229251D02*
X468000Y230251D01*
Y231250D02*
Y232250D01*
Y231750D01*
X465000D01*
X465500Y231250D01*
Y233749D02*
X465000Y234249D01*
Y235249D01*
X465500Y235749D01*
X466000D01*
X466500Y235249D01*
Y234749D01*
Y235249D01*
X467000Y235749D01*
X467500D01*
X468000Y235249D01*
Y234249D01*
X467500Y233749D01*
X458000Y227751D02*
X455000D01*
Y229251D01*
X455500Y229751D01*
X456500D01*
X457000Y229251D01*
Y227751D01*
Y228751D02*
X458000Y229751D01*
Y230750D02*
Y231750D01*
Y231250D01*
X455000D01*
X455500Y230750D01*
X458000Y235249D02*
Y233249D01*
X456000Y235249D01*
X455500D01*
X455000Y234749D01*
Y233749D01*
X455500Y233249D01*
X426500Y249000D02*
X426000Y248500D01*
Y247501D01*
X426500Y247001D01*
X428500D01*
X429000Y247501D01*
Y248500D01*
X428500Y249000D01*
X426000Y251999D02*
X426500Y250999D01*
X427500Y250000D01*
X428500D01*
X429000Y250500D01*
Y251499D01*
X428500Y251999D01*
X428000D01*
X427500Y251499D01*
Y250000D01*
X421500Y249000D02*
X421000Y248500D01*
Y247501D01*
X421500Y247001D01*
X423500D01*
X424000Y247501D01*
Y248500D01*
X423500Y249000D01*
X421000Y251999D02*
Y250000D01*
X422500D01*
X422000Y250999D01*
Y251499D01*
X422500Y251999D01*
X423500D01*
X424000Y251499D01*
Y250500D01*
X423500Y250000D01*
X416500Y249000D02*
X416001Y248500D01*
Y247501D01*
X416500Y247001D01*
X418500D01*
X418999Y247501D01*
Y248500D01*
X418500Y249000D01*
X418999Y251499D02*
X416001D01*
X417500Y250000D01*
Y251999D01*
X411500Y249000D02*
X411000Y248500D01*
Y247501D01*
X411500Y247001D01*
X413500D01*
X414000Y247501D01*
Y248500D01*
X413500Y249000D01*
X411500Y250000D02*
X411000Y250500D01*
Y251499D01*
X411500Y251999D01*
X412000D01*
X412500Y251499D01*
Y250999D01*
Y251499D01*
X413000Y251999D01*
X413500D01*
X414000Y251499D01*
Y250500D01*
X413500Y250000D01*
X377501Y305999D02*
X376501D01*
X376001Y305500D01*
Y303500D01*
X376501Y303000D01*
X377501D01*
X378001Y303500D01*
Y305500D01*
X377501Y305999D01*
X379000D02*
Y303500D01*
X379500Y303000D01*
X380500D01*
X381000Y303500D01*
Y305999D01*
X381999D02*
X383999D01*
X382999D01*
Y303000D01*
X244253Y235749D02*
X245252D01*
X244753D01*
Y232750D01*
X244253D01*
X245252D01*
X246752D02*
Y235749D01*
X248751Y232750D01*
Y235749D01*
X249751Y232251D02*
X251750D01*
X254749Y235250D02*
X254249Y235749D01*
X253250D01*
X252750Y235250D01*
Y233250D01*
X253250Y232750D01*
X254249D01*
X254749Y233250D01*
Y234250D01*
X253750D01*
X255749Y232750D02*
Y235749D01*
X257748Y232750D01*
Y235749D01*
X258748D02*
Y232750D01*
X260247D01*
X260747Y233250D01*
Y235250D01*
X260247Y235749D01*
X258748D01*
X243751Y306500D02*
X244750D01*
X244251D01*
Y303501D01*
X243751D01*
X244750D01*
X246250D02*
Y306500D01*
X248249Y303501D01*
Y306500D01*
X431900Y272200D02*
Y275199D01*
X433399D01*
X433899Y274699D01*
Y273699D01*
X433399Y273200D01*
X431900D01*
X436898Y275199D02*
X434899D01*
Y273699D01*
X435899Y274199D01*
X436399D01*
X436898Y273699D01*
Y272700D01*
X436399Y272200D01*
X435399D01*
X434899Y272700D01*
X434200Y334200D02*
Y337199D01*
X435700D01*
X436199Y336699D01*
Y335700D01*
X435700Y335200D01*
X434200D01*
X437199Y336699D02*
X437699Y337199D01*
X438698D01*
X439198Y336699D01*
Y336199D01*
X438698Y335700D01*
X438199D01*
X438698D01*
X439198Y335200D01*
Y334700D01*
X438698Y334200D01*
X437699D01*
X437199Y334700D01*
X245400Y334200D02*
Y337199D01*
X246900D01*
X247399Y336699D01*
Y335700D01*
X246900Y335200D01*
X245400D01*
X248399Y334200D02*
X249399D01*
X248899D01*
Y337199D01*
X248399Y336699D01*
M02*
