G04*
G04 #@! TF.GenerationSoftware,Altium Limited,Altium Designer,20.0.13 (296)*
G04*
G04 Layer_Color=8388736*
%FSLAX25Y25*%
%MOIN*%
G70*
G01*
G75*
%ADD18R,0.03300X0.05800*%
%ADD19R,0.03753X0.03950*%
%ADD20R,0.03950X0.03753*%
%ADD21C,0.06706*%
%ADD22R,0.06706X0.06706*%
%ADD23R,0.06706X0.06706*%
D18*
X415250Y283500D02*
D03*
X411450D02*
D03*
Y293500D02*
D03*
X415250D02*
D03*
X407750D02*
D03*
Y283500D02*
D03*
D19*
X411291Y300500D02*
D03*
X417000D02*
D03*
X397500Y314500D02*
D03*
X391791D02*
D03*
X416854Y276500D02*
D03*
X411146D02*
D03*
Y271500D02*
D03*
X416854D02*
D03*
X514791Y405500D02*
D03*
X520500D02*
D03*
Y395500D02*
D03*
X514791D02*
D03*
Y385500D02*
D03*
X520500D02*
D03*
Y375500D02*
D03*
X514791D02*
D03*
Y365500D02*
D03*
X520500D02*
D03*
Y355500D02*
D03*
X514791D02*
D03*
Y345500D02*
D03*
X520500D02*
D03*
Y335500D02*
D03*
X514791D02*
D03*
D20*
X526500Y278209D02*
D03*
Y272500D02*
D03*
X521500Y272646D02*
D03*
Y278354D02*
D03*
X377500Y399146D02*
D03*
Y404854D02*
D03*
X372500Y399146D02*
D03*
Y404854D02*
D03*
X456500Y277709D02*
D03*
Y272000D02*
D03*
X466500Y246000D02*
D03*
Y240291D02*
D03*
X456500Y246000D02*
D03*
Y240291D02*
D03*
X427500Y262354D02*
D03*
Y256646D02*
D03*
X422500Y262354D02*
D03*
Y256646D02*
D03*
X417500Y262354D02*
D03*
Y256646D02*
D03*
X412500Y262354D02*
D03*
Y256646D02*
D03*
D21*
X392500Y235000D02*
D03*
X450000Y417500D02*
D03*
X460000D02*
D03*
X470000D02*
D03*
X480000D02*
D03*
X490000D02*
D03*
X500000D02*
D03*
X510000D02*
D03*
X260000D02*
D03*
X280000D02*
D03*
X290000D02*
D03*
X300000D02*
D03*
X310000D02*
D03*
X320000D02*
D03*
X330000D02*
D03*
X340000D02*
D03*
X270000D02*
D03*
X350000D02*
D03*
X360000D02*
D03*
X370000D02*
D03*
X380000D02*
D03*
X390000Y417500D02*
D03*
X400000Y417500D02*
D03*
X410000D02*
D03*
X420000D02*
D03*
X430000D02*
D03*
X528500Y335500D02*
D03*
Y345500D02*
D03*
Y355500D02*
D03*
Y365500D02*
D03*
Y375500D02*
D03*
Y385500D02*
D03*
Y395500D02*
D03*
X392500Y304000D02*
D03*
X235000Y235000D02*
D03*
Y304000D02*
D03*
X486500Y264000D02*
D03*
Y254000D02*
D03*
X466500Y264000D02*
D03*
Y254000D02*
D03*
X436500Y264000D02*
D03*
X446500Y254000D02*
D03*
Y264000D02*
D03*
X456500Y254000D02*
D03*
Y264000D02*
D03*
X476500D02*
D03*
Y254000D02*
D03*
X496500D02*
D03*
Y264000D02*
D03*
X506500Y254000D02*
D03*
X516500D02*
D03*
X526500D02*
D03*
Y264000D02*
D03*
X516500D02*
D03*
X506500D02*
D03*
X430000Y326000D02*
D03*
X420000D02*
D03*
X410000D02*
D03*
X400000D02*
D03*
X390000Y326000D02*
D03*
X380000Y326000D02*
D03*
X370000D02*
D03*
X360000D02*
D03*
X350000D02*
D03*
X270000D02*
D03*
X340000D02*
D03*
X330000D02*
D03*
X320000D02*
D03*
X310000D02*
D03*
X300000D02*
D03*
X290000D02*
D03*
X280000D02*
D03*
X260000D02*
D03*
X510000D02*
D03*
X500000D02*
D03*
X490000D02*
D03*
X480000D02*
D03*
X470000D02*
D03*
X460000D02*
D03*
X450000D02*
D03*
D22*
X440000Y417500D02*
D03*
X250000D02*
D03*
X436500Y254000D02*
D03*
X250000Y326000D02*
D03*
X440000D02*
D03*
D23*
X528500Y405500D02*
D03*
M02*
