G04*
G04 #@! TF.GenerationSoftware,Altium Limited,Altium Designer,20.0.13 (296)*
G04*
G04 Layer_Physical_Order=1*
G04 Layer_Color=255*
%FSLAX25Y25*%
%MOIN*%
G70*
G01*
G75*
%ADD10C,0.02000*%
%ADD15R,0.02500X0.05000*%
%ADD16R,0.02953X0.03150*%
%ADD17R,0.03150X0.02953*%
%ADD24C,0.01500*%
%ADD25C,0.03000*%
%ADD26C,0.05906*%
%ADD27R,0.05906X0.05906*%
%ADD28R,0.05906X0.05906*%
%ADD29C,0.03150*%
%ADD30C,0.03150*%
G36*
X542500Y225000D02*
X215000D01*
Y430000D01*
X542500D01*
Y225000D01*
D02*
G37*
%LPC*%
G36*
X383000Y426294D02*
X376500D01*
X375622Y426119D01*
X374878Y425622D01*
X371102Y421846D01*
X370000Y421991D01*
X368838Y421838D01*
X367754Y421389D01*
X366824Y420676D01*
X366110Y419746D01*
X365777Y418941D01*
X365112Y418812D01*
X364888D01*
X364223Y418941D01*
X363890Y419746D01*
X363176Y420676D01*
X362246Y421389D01*
X361162Y421838D01*
X360000Y421991D01*
X358838Y421838D01*
X357754Y421389D01*
X356824Y420676D01*
X356111Y419746D01*
X355777Y418941D01*
X355112Y418812D01*
X354888D01*
X354223Y418941D01*
X353889Y419746D01*
X353176Y420676D01*
X352246Y421389D01*
X351162Y421838D01*
X350000Y421991D01*
X348838Y421838D01*
X347754Y421389D01*
X346824Y420676D01*
X346111Y419746D01*
X345777Y418941D01*
X345112Y418812D01*
X344888D01*
X344223Y418941D01*
X343889Y419746D01*
X343176Y420676D01*
X342246Y421389D01*
X341162Y421838D01*
X340000Y421991D01*
X338838Y421838D01*
X337754Y421389D01*
X336824Y420676D01*
X336110Y419746D01*
X335777Y418941D01*
X335112Y418812D01*
X334888D01*
X334223Y418941D01*
X333890Y419746D01*
X333176Y420676D01*
X332246Y421389D01*
X331162Y421838D01*
X330000Y421991D01*
X328838Y421838D01*
X327754Y421389D01*
X326824Y420676D01*
X326111Y419746D01*
X325777Y418941D01*
X325112Y418812D01*
X324888D01*
X324223Y418941D01*
X323889Y419746D01*
X323176Y420676D01*
X322246Y421389D01*
X321162Y421838D01*
X320000Y421991D01*
X318838Y421838D01*
X317754Y421389D01*
X316824Y420676D01*
X316110Y419746D01*
X315777Y418941D01*
X315112Y418812D01*
X314888D01*
X314223Y418941D01*
X313890Y419746D01*
X313176Y420676D01*
X312246Y421389D01*
X311162Y421838D01*
X310000Y421991D01*
X308838Y421838D01*
X307754Y421389D01*
X306824Y420676D01*
X306111Y419746D01*
X305777Y418941D01*
X305112Y418812D01*
X304888D01*
X304223Y418941D01*
X303889Y419746D01*
X303176Y420676D01*
X302246Y421389D01*
X301162Y421838D01*
X300000Y421991D01*
X298838Y421838D01*
X297754Y421389D01*
X296824Y420676D01*
X296111Y419746D01*
X295777Y418941D01*
X295112Y418812D01*
X294888D01*
X294223Y418941D01*
X293889Y419746D01*
X293176Y420676D01*
X292246Y421389D01*
X291162Y421838D01*
X290000Y421991D01*
X288838Y421838D01*
X287754Y421389D01*
X286824Y420676D01*
X286110Y419746D01*
X285777Y418941D01*
X285112Y418812D01*
X284888D01*
X284223Y418941D01*
X283890Y419746D01*
X283176Y420676D01*
X282246Y421389D01*
X281162Y421838D01*
X280000Y421991D01*
X278838Y421838D01*
X277754Y421389D01*
X276824Y420676D01*
X276111Y419746D01*
X275777Y418941D01*
X275112Y418812D01*
X274888D01*
X274223Y418941D01*
X273889Y419746D01*
X273176Y420676D01*
X272246Y421389D01*
X271162Y421838D01*
X270000Y421991D01*
X268838Y421838D01*
X267754Y421389D01*
X266824Y420676D01*
X266110Y419746D01*
X265777Y418941D01*
X265112Y418812D01*
X264888D01*
X264223Y418941D01*
X263890Y419746D01*
X263176Y420676D01*
X262246Y421389D01*
X261162Y421838D01*
X260000Y421991D01*
X258838Y421838D01*
X257754Y421389D01*
X256824Y420676D01*
X256111Y419746D01*
X255953Y419365D01*
X254453Y419663D01*
Y421953D01*
X245547D01*
Y413047D01*
X254453D01*
Y415337D01*
X255953Y415635D01*
X256111Y415254D01*
X256824Y414324D01*
X256974Y414209D01*
Y388253D01*
X232860Y364140D01*
X232380Y363513D01*
X232077Y362783D01*
X231974Y362000D01*
Y307291D01*
X231824Y307176D01*
X231111Y306246D01*
X230662Y305162D01*
X230509Y304000D01*
X230662Y302838D01*
X231111Y301754D01*
X231824Y300824D01*
X232754Y300111D01*
X233838Y299662D01*
X235000Y299509D01*
X236162Y299662D01*
X237246Y300111D01*
X238176Y300824D01*
X238890Y301754D01*
X239338Y302838D01*
X239491Y304000D01*
X239338Y305162D01*
X238890Y306246D01*
X238176Y307176D01*
X238026Y307291D01*
Y360747D01*
X262140Y384860D01*
X262620Y385487D01*
X262923Y386217D01*
X263026Y387000D01*
Y414209D01*
X263176Y414324D01*
X263890Y415254D01*
X264223Y416059D01*
X264888Y416188D01*
X265112D01*
X265777Y416059D01*
X266110Y415254D01*
X266824Y414324D01*
X267754Y413611D01*
X268838Y413162D01*
X270000Y413009D01*
X271162Y413162D01*
X272246Y413611D01*
X273176Y414324D01*
X273889Y415254D01*
X274223Y416059D01*
X274888Y416188D01*
X275112D01*
X275777Y416059D01*
X276111Y415254D01*
X276824Y414324D01*
X277754Y413611D01*
X278838Y413162D01*
X280000Y413009D01*
X281162Y413162D01*
X282246Y413611D01*
X283176Y414324D01*
X283890Y415254D01*
X284223Y416059D01*
X284888Y416188D01*
X285112D01*
X285777Y416059D01*
X286110Y415254D01*
X286824Y414324D01*
X287754Y413611D01*
X288838Y413162D01*
X290000Y413009D01*
X291162Y413162D01*
X292246Y413611D01*
X293176Y414324D01*
X293889Y415254D01*
X294223Y416059D01*
X294888Y416188D01*
X295112D01*
X295777Y416059D01*
X296111Y415254D01*
X296824Y414324D01*
X297754Y413611D01*
X298838Y413162D01*
X300000Y413009D01*
X301162Y413162D01*
X302246Y413611D01*
X303176Y414324D01*
X303889Y415254D01*
X304223Y416059D01*
X304888Y416188D01*
X305112D01*
X305777Y416059D01*
X306111Y415254D01*
X306824Y414324D01*
X307754Y413611D01*
X308838Y413162D01*
X310000Y413009D01*
X311162Y413162D01*
X312246Y413611D01*
X313176Y414324D01*
X313890Y415254D01*
X314223Y416059D01*
X314888Y416188D01*
X315112D01*
X315777Y416059D01*
X316110Y415254D01*
X316824Y414324D01*
X317754Y413611D01*
X318838Y413162D01*
X320000Y413009D01*
X321162Y413162D01*
X322246Y413611D01*
X323176Y414324D01*
X323889Y415254D01*
X324223Y416059D01*
X324888Y416188D01*
X325112D01*
X325777Y416059D01*
X326111Y415254D01*
X326824Y414324D01*
X327754Y413611D01*
X328838Y413162D01*
X330000Y413009D01*
X331162Y413162D01*
X332246Y413611D01*
X333176Y414324D01*
X333890Y415254D01*
X334223Y416059D01*
X334888Y416188D01*
X335112D01*
X335777Y416059D01*
X336110Y415254D01*
X336824Y414324D01*
X337754Y413611D01*
X338838Y413162D01*
X340000Y413009D01*
X341162Y413162D01*
X342246Y413611D01*
X343176Y414324D01*
X343889Y415254D01*
X344223Y416059D01*
X344888Y416188D01*
X345112D01*
X345777Y416059D01*
X346111Y415254D01*
X346824Y414324D01*
X347754Y413611D01*
X348838Y413162D01*
X350000Y413009D01*
X351162Y413162D01*
X352246Y413611D01*
X353176Y414324D01*
X353889Y415254D01*
X354223Y416059D01*
X354888Y416188D01*
X355112D01*
X355777Y416059D01*
X356111Y415254D01*
X356824Y414324D01*
X357754Y413611D01*
X358838Y413162D01*
X360000Y413009D01*
X361162Y413162D01*
X362246Y413611D01*
X363176Y414324D01*
X363890Y415254D01*
X364223Y416059D01*
X364888Y416188D01*
X365112D01*
X365777Y416059D01*
X366110Y415254D01*
X366824Y414324D01*
X367754Y413611D01*
X368838Y413162D01*
X370000Y413009D01*
X370165Y413030D01*
X370861Y411656D01*
X370870Y411610D01*
X370380Y410878D01*
X370206Y410000D01*
Y407831D01*
X369425D01*
Y401878D01*
Y396169D01*
X369425Y396169D01*
X369656Y394669D01*
X369504Y394303D01*
X369399Y393500D01*
X369504Y392697D01*
X369814Y391949D01*
X370307Y391307D01*
X370949Y390814D01*
X371697Y390504D01*
X372500Y390399D01*
X373303Y390504D01*
X374051Y390814D01*
X375307Y391161D01*
X375949Y390669D01*
X376697Y390359D01*
X377500Y390253D01*
X378303Y390359D01*
X379051Y390669D01*
X379693Y391161D01*
X380186Y391804D01*
X380496Y392552D01*
X380601Y393354D01*
X380496Y394157D01*
X380283Y394669D01*
X380575Y396169D01*
X380575D01*
Y401878D01*
Y404586D01*
X386622Y410634D01*
X387120Y411378D01*
X387280Y412184D01*
X387308Y412264D01*
X388794Y413180D01*
X388837Y413162D01*
X390000Y413009D01*
X391162Y413162D01*
X392245Y413611D01*
X393175Y414325D01*
X393889Y415255D01*
X394222Y416059D01*
X394892Y416189D01*
X395109Y416189D01*
X395777Y416059D01*
X396111Y415254D01*
X396824Y414324D01*
X397754Y413611D01*
X398838Y413162D01*
X400000Y413009D01*
X401162Y413162D01*
X402246Y413611D01*
X403176Y414324D01*
X403890Y415254D01*
X404223Y416059D01*
X404888Y416188D01*
X405112D01*
X405777Y416059D01*
X406110Y415254D01*
X406824Y414324D01*
X407754Y413611D01*
X408838Y413162D01*
X410000Y413009D01*
X411162Y413162D01*
X412246Y413611D01*
X413176Y414324D01*
X413890Y415254D01*
X414223Y416059D01*
X414888Y416188D01*
X415112D01*
X415777Y416059D01*
X416111Y415254D01*
X416824Y414324D01*
X417754Y413611D01*
X418838Y413162D01*
X420000Y413009D01*
X421162Y413162D01*
X422246Y413611D01*
X423176Y414324D01*
X423889Y415254D01*
X424223Y416059D01*
X424888Y416188D01*
X425112D01*
X425777Y416059D01*
X426111Y415254D01*
X426824Y414324D01*
X427754Y413611D01*
X428838Y413162D01*
X430000Y413009D01*
X431162Y413162D01*
X432246Y413611D01*
X433176Y414324D01*
X433889Y415254D01*
X434047Y415635D01*
X435547Y415337D01*
Y413047D01*
X444453D01*
Y415337D01*
X445953Y415635D01*
X446110Y415254D01*
X446824Y414324D01*
X447754Y413611D01*
X448838Y413162D01*
X450000Y413009D01*
X451162Y413162D01*
X452246Y413611D01*
X453176Y414324D01*
X453890Y415254D01*
X454223Y416059D01*
X454888Y416188D01*
X455112D01*
X455777Y416059D01*
X456110Y415254D01*
X456824Y414324D01*
X457754Y413611D01*
X458838Y413162D01*
X460000Y413009D01*
X461162Y413162D01*
X462246Y413611D01*
X463176Y414324D01*
X463890Y415254D01*
X464223Y416059D01*
X464888Y416188D01*
X465112D01*
X465777Y416059D01*
X466111Y415254D01*
X466824Y414324D01*
X467754Y413611D01*
X468838Y413162D01*
X470000Y413009D01*
X471162Y413162D01*
X472246Y413611D01*
X473176Y414324D01*
X473889Y415254D01*
X474223Y416059D01*
X474888Y416188D01*
X475112D01*
X475777Y416059D01*
X476111Y415254D01*
X476824Y414324D01*
X477754Y413611D01*
X478838Y413162D01*
X480000Y413009D01*
X481162Y413162D01*
X482246Y413611D01*
X483176Y414324D01*
X483889Y415254D01*
X484223Y416059D01*
X484888Y416188D01*
X485112D01*
X485777Y416059D01*
X486110Y415254D01*
X486824Y414324D01*
X487754Y413611D01*
X488838Y413162D01*
X490000Y413009D01*
X491162Y413162D01*
X492246Y413611D01*
X493176Y414324D01*
X493890Y415254D01*
X494223Y416059D01*
X494888Y416188D01*
X495112D01*
X495777Y416059D01*
X496110Y415254D01*
X496824Y414324D01*
X497754Y413611D01*
X498838Y413162D01*
X500000Y413009D01*
X501162Y413162D01*
X502246Y413611D01*
X503176Y414324D01*
X503890Y415254D01*
X504338Y416338D01*
X504491Y417500D01*
X504338Y418662D01*
X503890Y419746D01*
X503176Y420676D01*
X502246Y421389D01*
X501162Y421838D01*
X500000Y421991D01*
X498838Y421838D01*
X497754Y421389D01*
X496824Y420676D01*
X496110Y419746D01*
X495777Y418941D01*
X495112Y418812D01*
X494888D01*
X494223Y418941D01*
X493890Y419746D01*
X493176Y420676D01*
X492246Y421389D01*
X491162Y421838D01*
X490000Y421991D01*
X488838Y421838D01*
X487754Y421389D01*
X486824Y420676D01*
X486110Y419746D01*
X485777Y418941D01*
X485112Y418812D01*
X484888D01*
X484223Y418941D01*
X483889Y419746D01*
X483176Y420676D01*
X482246Y421389D01*
X481162Y421838D01*
X480000Y421991D01*
X478838Y421838D01*
X477754Y421389D01*
X476824Y420676D01*
X476111Y419746D01*
X475777Y418941D01*
X475112Y418812D01*
X474888D01*
X474223Y418941D01*
X473889Y419746D01*
X473176Y420676D01*
X472246Y421389D01*
X471162Y421838D01*
X470000Y421991D01*
X468838Y421838D01*
X467754Y421389D01*
X466824Y420676D01*
X466111Y419746D01*
X465777Y418941D01*
X465112Y418812D01*
X464888D01*
X464223Y418941D01*
X463890Y419746D01*
X463176Y420676D01*
X462246Y421389D01*
X461162Y421838D01*
X460000Y421991D01*
X458838Y421838D01*
X457754Y421389D01*
X456824Y420676D01*
X456110Y419746D01*
X455777Y418941D01*
X455112Y418812D01*
X454888D01*
X454223Y418941D01*
X453890Y419746D01*
X453176Y420676D01*
X452246Y421389D01*
X451162Y421838D01*
X450000Y421991D01*
X448838Y421838D01*
X447754Y421389D01*
X446824Y420676D01*
X446110Y419746D01*
X445953Y419365D01*
X444453Y419663D01*
Y421953D01*
X435547D01*
Y419663D01*
X434047Y419365D01*
X433889Y419746D01*
X433176Y420676D01*
X432246Y421389D01*
X431162Y421838D01*
X430000Y421991D01*
X428838Y421838D01*
X427754Y421389D01*
X426824Y420676D01*
X426111Y419746D01*
X425777Y418941D01*
X425112Y418812D01*
X424888D01*
X424223Y418941D01*
X423889Y419746D01*
X423176Y420676D01*
X422246Y421389D01*
X421162Y421838D01*
X420000Y421991D01*
X418838Y421838D01*
X417754Y421389D01*
X416824Y420676D01*
X416111Y419746D01*
X415777Y418941D01*
X415112Y418812D01*
X414888D01*
X414223Y418941D01*
X413890Y419746D01*
X413176Y420676D01*
X412246Y421389D01*
X411162Y421838D01*
X410000Y421991D01*
X408838Y421838D01*
X407754Y421389D01*
X406824Y420676D01*
X406110Y419746D01*
X405777Y418941D01*
X405112Y418812D01*
X404888D01*
X404223Y418941D01*
X403890Y419746D01*
X403176Y420676D01*
X402246Y421389D01*
X401162Y421838D01*
X400000Y421991D01*
X398838Y421838D01*
X397754Y421389D01*
X396824Y420676D01*
X396111Y419746D01*
X395777Y418941D01*
X395108Y418812D01*
X394890Y418812D01*
X394222Y418941D01*
X393889Y419746D01*
X393175Y420676D01*
X392245Y421390D01*
X391162Y421839D01*
X390000Y421991D01*
X388837Y421839D01*
X388794Y421821D01*
X388525Y421853D01*
X387146Y422742D01*
X387120Y422878D01*
X386622Y423622D01*
X384622Y425622D01*
X383878Y426119D01*
X383000Y426294D01*
D02*
G37*
G36*
X532953Y409953D02*
X524047D01*
Y409838D01*
X523476Y408575D01*
X511815D01*
X511815Y408575D01*
X510500Y408601D01*
X510316Y408577D01*
X509697Y408496D01*
X508949Y408186D01*
X508307Y407693D01*
X507814Y407051D01*
X507504Y406303D01*
X507399Y405500D01*
X507504Y404697D01*
X507814Y403949D01*
X508307Y403307D01*
X508949Y402814D01*
X509697Y402504D01*
X510500Y402399D01*
X511815Y402425D01*
X511815Y402425D01*
X523476D01*
X524047Y401162D01*
Y401047D01*
X526337D01*
X526635Y399547D01*
X526254Y399390D01*
X525324Y398676D01*
X524976Y398222D01*
X523476Y398575D01*
Y398575D01*
X511815D01*
X511815Y398575D01*
X510500Y398601D01*
X510316Y398577D01*
X509697Y398496D01*
X508949Y398186D01*
X508307Y397693D01*
X507814Y397051D01*
X507504Y396303D01*
X507399Y395500D01*
X507504Y394697D01*
X507814Y393949D01*
X508307Y393307D01*
X508949Y392814D01*
X509697Y392504D01*
X510500Y392399D01*
X511815Y392425D01*
X511815Y392425D01*
X523476D01*
Y392425D01*
X524976Y392778D01*
X525324Y392324D01*
X526254Y391611D01*
X527059Y391277D01*
X527188Y390612D01*
Y390388D01*
X527059Y389723D01*
X526254Y389389D01*
X525324Y388676D01*
X524976Y388222D01*
X523476Y388575D01*
Y388575D01*
X511815D01*
X511815Y388575D01*
X510500Y388601D01*
X510316Y388577D01*
X509697Y388496D01*
X508949Y388186D01*
X508307Y387693D01*
X507814Y387051D01*
X507504Y386303D01*
X507399Y385500D01*
X507504Y384697D01*
X507814Y383949D01*
X508307Y383307D01*
X508949Y382814D01*
X509697Y382504D01*
X510500Y382399D01*
X511815Y382425D01*
X511815Y382425D01*
X523476D01*
Y382425D01*
X524976Y382778D01*
X525324Y382324D01*
X526254Y381610D01*
X527059Y381277D01*
X527188Y380612D01*
Y380388D01*
X527059Y379723D01*
X526254Y379390D01*
X525324Y378676D01*
X524976Y378222D01*
X523476Y378575D01*
Y378575D01*
X511815D01*
X511815Y378575D01*
X510500Y378601D01*
X510316Y378577D01*
X509697Y378496D01*
X508949Y378186D01*
X508307Y377693D01*
X507814Y377051D01*
X507504Y376303D01*
X507399Y375500D01*
X507504Y374697D01*
X507814Y373949D01*
X508307Y373307D01*
X508949Y372814D01*
X509697Y372504D01*
X510500Y372399D01*
X511815Y372425D01*
X511815Y372425D01*
X523476D01*
Y372425D01*
X524976Y372778D01*
X525324Y372324D01*
X526254Y371610D01*
X527059Y371277D01*
X527188Y370612D01*
Y370388D01*
X527059Y369723D01*
X526254Y369390D01*
X525324Y368676D01*
X524976Y368222D01*
X523476Y368575D01*
Y368575D01*
X511815D01*
X511815Y368575D01*
X511470Y368633D01*
X511350Y368683D01*
X510547Y368789D01*
X510547Y368789D01*
X510395Y368769D01*
X509744Y368683D01*
X508996Y368373D01*
X508354Y367880D01*
X507861Y367238D01*
X507551Y366490D01*
X507446Y365687D01*
X507551Y364884D01*
X507861Y364137D01*
X508354Y363494D01*
X508996Y363001D01*
X509744Y362692D01*
X510328Y362615D01*
X510390Y362607D01*
X510392Y362606D01*
X510547Y362586D01*
X511815Y362425D01*
Y362425D01*
X523476D01*
Y362425D01*
X524976Y362778D01*
X525324Y362324D01*
X526254Y361611D01*
X527059Y361277D01*
X527188Y360612D01*
Y360388D01*
X527059Y359723D01*
X526254Y359389D01*
X525324Y358676D01*
X524976Y358222D01*
X523476Y358575D01*
Y358575D01*
X511815D01*
X511815Y358575D01*
X510500Y358601D01*
X510316Y358577D01*
X509697Y358496D01*
X508949Y358186D01*
X508307Y357693D01*
X507814Y357051D01*
X507504Y356303D01*
X507399Y355500D01*
X507504Y354697D01*
X507814Y353949D01*
X508307Y353307D01*
X508949Y352814D01*
X509697Y352504D01*
X510500Y352399D01*
X511815Y352425D01*
X511815Y352425D01*
X523476D01*
Y352425D01*
X524976Y352778D01*
X525324Y352324D01*
X526254Y351610D01*
X527059Y351277D01*
X527188Y350612D01*
Y350388D01*
X527059Y349723D01*
X526254Y349390D01*
X525324Y348676D01*
X524976Y348222D01*
X523476Y348575D01*
Y348575D01*
X511815D01*
X511815Y348575D01*
X510500Y348601D01*
X510316Y348577D01*
X509697Y348496D01*
X508949Y348186D01*
X508307Y347693D01*
X507814Y347051D01*
X507504Y346303D01*
X507399Y345500D01*
X507504Y344697D01*
X507814Y343949D01*
X508307Y343307D01*
Y342693D01*
X507814Y342051D01*
X507504Y341303D01*
X507399Y340500D01*
X507504Y339697D01*
X507814Y338949D01*
X508307Y338307D01*
X508949Y337814D01*
X509433Y337614D01*
X511815Y335232D01*
Y332425D01*
X523476D01*
Y332425D01*
X524976Y332778D01*
X525324Y332324D01*
X526254Y331610D01*
X527338Y331162D01*
X528500Y331009D01*
X529662Y331162D01*
X530746Y331610D01*
X531676Y332324D01*
X532389Y333254D01*
X532838Y334338D01*
X532991Y335500D01*
X532838Y336662D01*
X532389Y337746D01*
X531676Y338676D01*
X530746Y339389D01*
X529941Y339723D01*
X529812Y340388D01*
Y340612D01*
X529941Y341277D01*
X530746Y341611D01*
X531676Y342324D01*
X532389Y343254D01*
X532838Y344338D01*
X532991Y345500D01*
X532838Y346662D01*
X532389Y347746D01*
X531676Y348676D01*
X530746Y349390D01*
X529941Y349723D01*
X529812Y350388D01*
Y350612D01*
X529941Y351277D01*
X530746Y351610D01*
X531676Y352324D01*
X532389Y353254D01*
X532838Y354338D01*
X532991Y355500D01*
X532838Y356662D01*
X532389Y357746D01*
X531676Y358676D01*
X530746Y359389D01*
X529941Y359723D01*
X529812Y360388D01*
Y360612D01*
X529941Y361277D01*
X530746Y361611D01*
X531676Y362324D01*
X532389Y363254D01*
X532838Y364338D01*
X532991Y365500D01*
X532838Y366662D01*
X532389Y367746D01*
X531676Y368676D01*
X530746Y369390D01*
X529941Y369723D01*
X529812Y370388D01*
Y370612D01*
X529941Y371277D01*
X530746Y371610D01*
X531676Y372324D01*
X532389Y373254D01*
X532838Y374338D01*
X532991Y375500D01*
X532838Y376662D01*
X532389Y377746D01*
X531676Y378676D01*
X530746Y379390D01*
X529941Y379723D01*
X529812Y380388D01*
Y380612D01*
X529941Y381277D01*
X530746Y381610D01*
X531676Y382324D01*
X532389Y383254D01*
X532838Y384338D01*
X532991Y385500D01*
X532838Y386662D01*
X532389Y387746D01*
X531676Y388676D01*
X530746Y389389D01*
X529941Y389723D01*
X529812Y390388D01*
Y390612D01*
X529941Y391277D01*
X530746Y391611D01*
X531676Y392324D01*
X532389Y393254D01*
X532838Y394338D01*
X532991Y395500D01*
X532838Y396662D01*
X532389Y397746D01*
X531676Y398676D01*
X530746Y399390D01*
X530365Y399547D01*
X530663Y401047D01*
X532953D01*
Y409953D01*
D02*
G37*
G36*
X390000Y330491D02*
X388837Y330339D01*
X387754Y329890D01*
X386824Y329176D01*
X386110Y328246D01*
X385777Y327442D01*
X385116Y327313D01*
X384885Y327313D01*
X384222Y327442D01*
X383890Y328246D01*
X383176Y329176D01*
X382246Y329889D01*
X381162Y330338D01*
X380000Y330491D01*
X378838Y330338D01*
X377754Y329889D01*
X376824Y329176D01*
X376111Y328246D01*
X375777Y327441D01*
X375112Y327312D01*
X374888D01*
X374223Y327441D01*
X373889Y328246D01*
X373176Y329176D01*
X372246Y329889D01*
X371162Y330338D01*
X370000Y330491D01*
X368838Y330338D01*
X367754Y329889D01*
X366824Y329176D01*
X366110Y328246D01*
X365777Y327441D01*
X365112Y327312D01*
X364888D01*
X364223Y327441D01*
X363890Y328246D01*
X363176Y329176D01*
X362246Y329889D01*
X361162Y330338D01*
X360000Y330491D01*
X358838Y330338D01*
X357754Y329889D01*
X356824Y329176D01*
X356111Y328246D01*
X355777Y327441D01*
X355112Y327312D01*
X354888D01*
X354223Y327441D01*
X353889Y328246D01*
X353176Y329176D01*
X352246Y329889D01*
X351162Y330338D01*
X350000Y330491D01*
X348838Y330338D01*
X347754Y329889D01*
X346824Y329176D01*
X346111Y328246D01*
X345777Y327441D01*
X345112Y327312D01*
X344888D01*
X344223Y327441D01*
X343889Y328246D01*
X343176Y329176D01*
X342246Y329889D01*
X341162Y330338D01*
X340000Y330491D01*
X338838Y330338D01*
X337754Y329889D01*
X336824Y329176D01*
X336110Y328246D01*
X335777Y327441D01*
X335112Y327312D01*
X334888D01*
X334223Y327441D01*
X333890Y328246D01*
X333176Y329176D01*
X332246Y329889D01*
X331162Y330338D01*
X330000Y330491D01*
X328838Y330338D01*
X327754Y329889D01*
X326824Y329176D01*
X326111Y328246D01*
X325777Y327441D01*
X325112Y327312D01*
X324888D01*
X324223Y327441D01*
X323889Y328246D01*
X323176Y329176D01*
X322246Y329889D01*
X321162Y330338D01*
X320000Y330491D01*
X318838Y330338D01*
X317754Y329889D01*
X316824Y329176D01*
X316110Y328246D01*
X315777Y327441D01*
X315112Y327312D01*
X314888D01*
X314223Y327441D01*
X313890Y328246D01*
X313176Y329176D01*
X312246Y329889D01*
X311162Y330338D01*
X310000Y330491D01*
X308838Y330338D01*
X307754Y329889D01*
X306824Y329176D01*
X306111Y328246D01*
X305777Y327441D01*
X305112Y327312D01*
X304888D01*
X304223Y327441D01*
X303889Y328246D01*
X303176Y329176D01*
X302246Y329889D01*
X301162Y330338D01*
X300000Y330491D01*
X298838Y330338D01*
X297754Y329889D01*
X296824Y329176D01*
X296111Y328246D01*
X295777Y327441D01*
X295112Y327312D01*
X294888D01*
X294223Y327441D01*
X293889Y328246D01*
X293176Y329176D01*
X292246Y329889D01*
X291162Y330338D01*
X290000Y330491D01*
X288838Y330338D01*
X287754Y329889D01*
X286824Y329176D01*
X286110Y328246D01*
X285777Y327441D01*
X285112Y327312D01*
X284888D01*
X284223Y327441D01*
X283890Y328246D01*
X283176Y329176D01*
X282246Y329889D01*
X281162Y330338D01*
X280000Y330491D01*
X278838Y330338D01*
X277754Y329889D01*
X276824Y329176D01*
X276111Y328246D01*
X275777Y327441D01*
X275112Y327312D01*
X274888D01*
X274223Y327441D01*
X273889Y328246D01*
X273176Y329176D01*
X272246Y329889D01*
X271162Y330338D01*
X270000Y330491D01*
X268838Y330338D01*
X267754Y329889D01*
X266824Y329176D01*
X266110Y328246D01*
X265777Y327441D01*
X265112Y327312D01*
X264888D01*
X264223Y327441D01*
X263890Y328246D01*
X263176Y329176D01*
X262246Y329889D01*
X261162Y330338D01*
X260000Y330491D01*
X258838Y330338D01*
X257754Y329889D01*
X256824Y329176D01*
X256111Y328246D01*
X255662Y327162D01*
X255509Y326000D01*
X255662Y324838D01*
X256111Y323754D01*
X256824Y322824D01*
X257754Y322111D01*
X258838Y321662D01*
X260000Y321509D01*
X261162Y321662D01*
X262246Y322111D01*
X263176Y322824D01*
X263890Y323754D01*
X264223Y324559D01*
X264888Y324688D01*
X265112D01*
X265777Y324559D01*
X266110Y323754D01*
X266824Y322824D01*
X267754Y322111D01*
X268838Y321662D01*
X270000Y321509D01*
X271162Y321662D01*
X272246Y322111D01*
X273176Y322824D01*
X273889Y323754D01*
X274223Y324559D01*
X274888Y324688D01*
X275112D01*
X275777Y324559D01*
X276111Y323754D01*
X276824Y322824D01*
X277754Y322111D01*
X278838Y321662D01*
X280000Y321509D01*
X281162Y321662D01*
X282246Y322111D01*
X283176Y322824D01*
X283890Y323754D01*
X284223Y324559D01*
X284888Y324688D01*
X285112D01*
X285777Y324559D01*
X286110Y323754D01*
X286824Y322824D01*
X287754Y322111D01*
X288838Y321662D01*
X290000Y321509D01*
X291162Y321662D01*
X292246Y322111D01*
X293176Y322824D01*
X293889Y323754D01*
X294223Y324559D01*
X294888Y324688D01*
X295112D01*
X295777Y324559D01*
X296111Y323754D01*
X296824Y322824D01*
X297754Y322111D01*
X298838Y321662D01*
X300000Y321509D01*
X301162Y321662D01*
X302246Y322111D01*
X303176Y322824D01*
X303889Y323754D01*
X304223Y324559D01*
X304888Y324688D01*
X305112D01*
X305777Y324559D01*
X306111Y323754D01*
X306824Y322824D01*
X307706Y322148D01*
Y319000D01*
X307880Y318122D01*
X308378Y317378D01*
X312878Y312878D01*
X313622Y312381D01*
X314500Y312206D01*
X388815D01*
Y311425D01*
X397232D01*
X405456Y303201D01*
Y297500D01*
X405000D01*
Y289500D01*
X405000D01*
X405221Y289000D01*
X405000Y287500D01*
X405000D01*
Y279500D01*
X408169D01*
Y273425D01*
X413878D01*
Y268425D01*
X419831D01*
Y272782D01*
X420315Y273229D01*
X421040Y273611D01*
X421331Y273656D01*
X421697Y273504D01*
X422500Y273399D01*
X423303Y273504D01*
X424051Y273814D01*
X424693Y274307D01*
X425186Y274949D01*
X425496Y275697D01*
X425601Y276500D01*
X425496Y277303D01*
X425186Y278051D01*
X424794Y278561D01*
Y278939D01*
X425186Y279449D01*
X425496Y280197D01*
X425601Y281000D01*
X425496Y281803D01*
X425186Y282551D01*
X424693Y283193D01*
X424051Y283686D01*
X423303Y283996D01*
X422920Y284046D01*
X422624Y284451D01*
X423290Y285817D01*
X423477Y285951D01*
X453482D01*
X453878Y285347D01*
X454121Y284451D01*
X453814Y284051D01*
X453504Y283303D01*
X453399Y282500D01*
X453440Y282185D01*
X453425Y280685D01*
X453425D01*
Y274732D01*
Y269024D01*
X453698D01*
X453778Y267524D01*
X453324Y267176D01*
X452610Y266246D01*
X452277Y265441D01*
X451612Y265312D01*
X451388D01*
X450723Y265441D01*
X450389Y266246D01*
X449676Y267176D01*
X448746Y267889D01*
X447662Y268338D01*
X446500Y268491D01*
X445338Y268338D01*
X444254Y267889D01*
X443324Y267176D01*
X442611Y266246D01*
X442162Y265162D01*
X442009Y264000D01*
X442162Y262838D01*
X442611Y261754D01*
X443324Y260824D01*
X444254Y260110D01*
X445059Y259777D01*
X445188Y259112D01*
Y258888D01*
X445059Y258223D01*
X444254Y257890D01*
X443324Y257176D01*
X442611Y256246D01*
X442453Y255865D01*
X440953Y256163D01*
Y258453D01*
X436327D01*
X435994Y258785D01*
X435367Y259266D01*
X434637Y259568D01*
X433854Y259671D01*
X403608D01*
X395526Y267753D01*
Y300709D01*
X395676Y300824D01*
X396390Y301754D01*
X396838Y302838D01*
X396991Y304000D01*
X396838Y305162D01*
X396390Y306246D01*
X395676Y307176D01*
X394746Y307890D01*
X393662Y308338D01*
X392500Y308491D01*
X391338Y308338D01*
X390254Y307890D01*
X389324Y307176D01*
X388611Y306246D01*
X388162Y305162D01*
X388009Y304000D01*
X388162Y302838D01*
X388611Y301754D01*
X389324Y300824D01*
X389474Y300709D01*
Y266500D01*
X389577Y265717D01*
X389879Y264987D01*
X390360Y264360D01*
X400215Y254506D01*
X400841Y254025D01*
X401571Y253723D01*
X402354Y253620D01*
X432047D01*
Y249547D01*
X440953D01*
Y251837D01*
X442453Y252135D01*
X442611Y251754D01*
X443324Y250824D01*
X444254Y250111D01*
X445338Y249662D01*
X446500Y249509D01*
X447662Y249662D01*
X448746Y250111D01*
X449676Y250824D01*
X450389Y251754D01*
X450723Y252559D01*
X451388Y252688D01*
X451612D01*
X452277Y252559D01*
X452610Y251754D01*
X453324Y250824D01*
X453474Y250709D01*
Y248976D01*
X453425D01*
Y243024D01*
Y237315D01*
X453425Y237315D01*
X453399Y236000D01*
X453423Y235816D01*
X453504Y235197D01*
X453814Y234449D01*
X454307Y233807D01*
X454949Y233314D01*
X455697Y233004D01*
X456500Y232899D01*
X457303Y233004D01*
X458051Y233314D01*
X458693Y233807D01*
X459186Y234449D01*
X459496Y235197D01*
X459601Y236000D01*
X459575Y237315D01*
X459575Y237315D01*
Y243024D01*
Y248976D01*
X459526D01*
Y250709D01*
X459676Y250824D01*
X460390Y251754D01*
X460723Y252559D01*
X461388Y252688D01*
X461612D01*
X462277Y252559D01*
X462610Y251754D01*
X463324Y250824D01*
X463474Y250709D01*
Y248976D01*
X463425D01*
Y243024D01*
Y237315D01*
X463425Y237315D01*
X463399Y236000D01*
X463423Y235816D01*
X463504Y235197D01*
X463814Y234449D01*
X464307Y233807D01*
X464949Y233314D01*
X465697Y233004D01*
X466500Y232899D01*
X467303Y233004D01*
X468051Y233314D01*
X468693Y233807D01*
X469186Y234449D01*
X469496Y235197D01*
X469601Y236000D01*
X469575Y237315D01*
X469575Y237315D01*
Y243024D01*
Y248976D01*
X469526D01*
Y250709D01*
X469676Y250824D01*
X470390Y251754D01*
X470723Y252559D01*
X471388Y252688D01*
X471612D01*
X472277Y252559D01*
X472611Y251754D01*
X473324Y250824D01*
X474254Y250111D01*
X475338Y249662D01*
X476500Y249509D01*
X477662Y249662D01*
X478746Y250111D01*
X479676Y250824D01*
X480389Y251754D01*
X480723Y252559D01*
X481388Y252688D01*
X481612D01*
X482277Y252559D01*
X482611Y251754D01*
X483324Y250824D01*
X484254Y250111D01*
X485338Y249662D01*
X486500Y249509D01*
X487662Y249662D01*
X488746Y250111D01*
X489676Y250824D01*
X490389Y251754D01*
X490723Y252559D01*
X491388Y252688D01*
X491612D01*
X492277Y252559D01*
X492611Y251754D01*
X493324Y250824D01*
X494254Y250111D01*
X495338Y249662D01*
X496500Y249509D01*
X497662Y249662D01*
X498746Y250111D01*
X499676Y250824D01*
X500389Y251754D01*
X500723Y252559D01*
X501388Y252688D01*
X501612D01*
X502277Y252559D01*
X502610Y251754D01*
X503324Y250824D01*
X504254Y250111D01*
X505338Y249662D01*
X506500Y249509D01*
X507662Y249662D01*
X508746Y250111D01*
X509676Y250824D01*
X510390Y251754D01*
X510723Y252559D01*
X511388Y252688D01*
X511612D01*
X512277Y252559D01*
X512610Y251754D01*
X513324Y250824D01*
X514254Y250111D01*
X515338Y249662D01*
X516500Y249509D01*
X517662Y249662D01*
X518746Y250111D01*
X519676Y250824D01*
X520390Y251754D01*
X520723Y252559D01*
X521388Y252688D01*
X521612D01*
X522277Y252559D01*
X522611Y251754D01*
X523324Y250824D01*
X524254Y250111D01*
X525338Y249662D01*
X526500Y249509D01*
X527662Y249662D01*
X528746Y250111D01*
X529676Y250824D01*
X530389Y251754D01*
X530838Y252838D01*
X530991Y254000D01*
X530838Y255162D01*
X530389Y256246D01*
X529676Y257176D01*
X528746Y257890D01*
X527941Y258223D01*
X527812Y258888D01*
Y259112D01*
X527941Y259777D01*
X528746Y260110D01*
X529676Y260824D01*
X530389Y261754D01*
X530838Y262838D01*
X530991Y264000D01*
X530838Y265162D01*
X530389Y266246D01*
X529676Y267176D01*
X528794Y267852D01*
Y269524D01*
X529575D01*
Y275232D01*
Y281185D01*
X528794D01*
Y299500D01*
X528619Y300378D01*
X528122Y301122D01*
X512294Y316950D01*
Y322148D01*
X513176Y322824D01*
X513890Y323754D01*
X514338Y324838D01*
X514491Y326000D01*
X514338Y327162D01*
X513890Y328246D01*
X513176Y329176D01*
X512246Y329889D01*
X511162Y330338D01*
X510000Y330491D01*
X508838Y330338D01*
X507754Y329889D01*
X506824Y329176D01*
X506110Y328246D01*
X505777Y327441D01*
X505112Y327312D01*
X504888D01*
X504223Y327441D01*
X503890Y328246D01*
X503176Y329176D01*
X502246Y329889D01*
X501162Y330338D01*
X500000Y330491D01*
X498838Y330338D01*
X497754Y329889D01*
X496824Y329176D01*
X496110Y328246D01*
X495777Y327441D01*
X495112Y327312D01*
X494888D01*
X494223Y327441D01*
X493890Y328246D01*
X493176Y329176D01*
X492246Y329889D01*
X491162Y330338D01*
X490000Y330491D01*
X488838Y330338D01*
X487754Y329889D01*
X486824Y329176D01*
X486110Y328246D01*
X485777Y327441D01*
X485112Y327312D01*
X484888D01*
X484223Y327441D01*
X483889Y328246D01*
X483176Y329176D01*
X482246Y329889D01*
X481162Y330338D01*
X480000Y330491D01*
X478838Y330338D01*
X477754Y329889D01*
X476824Y329176D01*
X476111Y328246D01*
X475777Y327441D01*
X475112Y327312D01*
X474888D01*
X474223Y327441D01*
X473889Y328246D01*
X473176Y329176D01*
X472246Y329889D01*
X471162Y330338D01*
X470000Y330491D01*
X468838Y330338D01*
X467754Y329889D01*
X466824Y329176D01*
X466111Y328246D01*
X465777Y327441D01*
X465112Y327312D01*
X464888D01*
X464223Y327441D01*
X463890Y328246D01*
X463176Y329176D01*
X462246Y329889D01*
X461162Y330338D01*
X460000Y330491D01*
X458838Y330338D01*
X457754Y329889D01*
X456824Y329176D01*
X456110Y328246D01*
X455777Y327441D01*
X455112Y327312D01*
X454888D01*
X454223Y327441D01*
X453890Y328246D01*
X453176Y329176D01*
X452246Y329889D01*
X451162Y330338D01*
X450000Y330491D01*
X448838Y330338D01*
X447754Y329889D01*
X446824Y329176D01*
X446110Y328246D01*
X445953Y327865D01*
X444453Y328163D01*
Y330453D01*
X435547D01*
Y328163D01*
X434047Y327865D01*
X433889Y328246D01*
X433176Y329176D01*
X432246Y329889D01*
X431162Y330338D01*
X430000Y330491D01*
X428838Y330338D01*
X427754Y329889D01*
X426824Y329176D01*
X426111Y328246D01*
X425777Y327441D01*
X425112Y327312D01*
X424888D01*
X424223Y327441D01*
X423889Y328246D01*
X423176Y329176D01*
X422246Y329889D01*
X421162Y330338D01*
X420000Y330491D01*
X418838Y330338D01*
X417754Y329889D01*
X416824Y329176D01*
X416111Y328246D01*
X415777Y327441D01*
X415112Y327312D01*
X414888D01*
X414223Y327441D01*
X413890Y328246D01*
X413176Y329176D01*
X412246Y329889D01*
X411162Y330338D01*
X410000Y330491D01*
X408838Y330338D01*
X407754Y329889D01*
X406824Y329176D01*
X406110Y328246D01*
X405777Y327441D01*
X405112Y327312D01*
X404888D01*
X404223Y327441D01*
X403890Y328246D01*
X403176Y329176D01*
X402246Y329889D01*
X401162Y330338D01*
X400000Y330491D01*
X398838Y330338D01*
X397754Y329889D01*
X396824Y329176D01*
X396111Y328246D01*
X395777Y327441D01*
X395108Y327312D01*
X394890Y327312D01*
X394222Y327441D01*
X393889Y328246D01*
X393175Y329176D01*
X392245Y329890D01*
X391162Y330339D01*
X390000Y330491D01*
D02*
G37*
%LPD*%
G36*
X395109Y324689D02*
X395777Y324559D01*
X396111Y323754D01*
X396824Y322824D01*
X397754Y322111D01*
X398838Y321662D01*
X400000Y321509D01*
X401162Y321662D01*
X402246Y322111D01*
X403176Y322824D01*
X403890Y323754D01*
X404223Y324559D01*
X404888Y324688D01*
X405112D01*
X405777Y324559D01*
X406110Y323754D01*
X406824Y322824D01*
X407754Y322111D01*
X408838Y321662D01*
X410000Y321509D01*
X411162Y321662D01*
X412246Y322111D01*
X413176Y322824D01*
X413890Y323754D01*
X414223Y324559D01*
X414888Y324688D01*
X415112D01*
X415777Y324559D01*
X416111Y323754D01*
X416824Y322824D01*
X417754Y322111D01*
X418838Y321662D01*
X420000Y321509D01*
X421162Y321662D01*
X422246Y322111D01*
X423176Y322824D01*
X423889Y323754D01*
X424223Y324559D01*
X424888Y324688D01*
X425112D01*
X425777Y324559D01*
X426111Y323754D01*
X426824Y322824D01*
X427754Y322111D01*
X428838Y321662D01*
X430000Y321509D01*
X431162Y321662D01*
X432246Y322111D01*
X433176Y322824D01*
X433889Y323754D01*
X434047Y324135D01*
X435547Y323837D01*
Y321547D01*
X444453D01*
Y323837D01*
X445953Y324135D01*
X446110Y323754D01*
X446824Y322824D01*
X447754Y322111D01*
X448838Y321662D01*
X450000Y321509D01*
X451162Y321662D01*
X452246Y322111D01*
X453176Y322824D01*
X453890Y323754D01*
X454223Y324559D01*
X454888Y324688D01*
X455112D01*
X455777Y324559D01*
X456110Y323754D01*
X456824Y322824D01*
X457754Y322111D01*
X458838Y321662D01*
X460000Y321509D01*
X461162Y321662D01*
X462246Y322111D01*
X463176Y322824D01*
X463890Y323754D01*
X464223Y324559D01*
X464888Y324688D01*
X465112D01*
X465777Y324559D01*
X466111Y323754D01*
X466824Y322824D01*
X467754Y322111D01*
X468838Y321662D01*
X470000Y321509D01*
X471162Y321662D01*
X472246Y322111D01*
X473176Y322824D01*
X473889Y323754D01*
X474223Y324559D01*
X474888Y324688D01*
X475112D01*
X475777Y324559D01*
X476111Y323754D01*
X476824Y322824D01*
X477754Y322111D01*
X478838Y321662D01*
X480000Y321509D01*
X481162Y321662D01*
X482246Y322111D01*
X483176Y322824D01*
X483889Y323754D01*
X484223Y324559D01*
X484888Y324688D01*
X485112D01*
X485777Y324559D01*
X486110Y323754D01*
X486824Y322824D01*
X487754Y322111D01*
X488838Y321662D01*
X490000Y321509D01*
X491162Y321662D01*
X492246Y322111D01*
X493176Y322824D01*
X493890Y323754D01*
X494223Y324559D01*
X494888Y324688D01*
X495112D01*
X495777Y324559D01*
X496110Y323754D01*
X496824Y322824D01*
X497754Y322111D01*
X498409Y321839D01*
Y320797D01*
X498583Y319919D01*
X499081Y319175D01*
X519206Y299050D01*
Y281331D01*
X518425D01*
Y275378D01*
Y269669D01*
X517842Y268411D01*
X517706Y268320D01*
X517662Y268338D01*
X516500Y268491D01*
X515338Y268338D01*
X514254Y267889D01*
X513324Y267176D01*
X512610Y266246D01*
X512277Y265441D01*
X511612Y265312D01*
X511388D01*
X510723Y265441D01*
X510390Y266246D01*
X509676Y267176D01*
X508746Y267889D01*
X507662Y268338D01*
X506500Y268491D01*
X505338Y268338D01*
X504254Y267889D01*
X503324Y267176D01*
X502610Y266246D01*
X502277Y265441D01*
X501612Y265312D01*
X501388D01*
X500723Y265441D01*
X500389Y266246D01*
X499676Y267176D01*
X498746Y267889D01*
X497662Y268338D01*
X496500Y268491D01*
X495338Y268338D01*
X494254Y267889D01*
X493324Y267176D01*
X492611Y266246D01*
X492277Y265441D01*
X491612Y265312D01*
X491388D01*
X490723Y265441D01*
X490389Y266246D01*
X489676Y267176D01*
X488746Y267889D01*
X487662Y268338D01*
X486500Y268491D01*
X485338Y268338D01*
X484254Y267889D01*
X483324Y267176D01*
X482611Y266246D01*
X482277Y265441D01*
X481612Y265312D01*
X481388D01*
X480723Y265441D01*
X480389Y266246D01*
X479676Y267176D01*
X478746Y267889D01*
X477662Y268338D01*
X476500Y268491D01*
X475338Y268338D01*
X474254Y267889D01*
X473324Y267176D01*
X472611Y266246D01*
X472277Y265441D01*
X471612Y265312D01*
X471388D01*
X470723Y265441D01*
X470390Y266246D01*
X469676Y267176D01*
X469049Y267657D01*
Y283000D01*
X468855Y283976D01*
X468302Y284802D01*
X462802Y290302D01*
X461975Y290855D01*
X461000Y291049D01*
X426379D01*
X426153Y291220D01*
X425434Y292549D01*
X425496Y292697D01*
X425601Y293500D01*
X425496Y294303D01*
X425186Y295051D01*
X424693Y295693D01*
X424051Y296186D01*
X423303Y296496D01*
X422500Y296601D01*
X421697Y296496D01*
X421685Y296491D01*
X420145Y297159D01*
X419992Y297342D01*
X419976Y297425D01*
X419976Y297425D01*
Y303575D01*
X419044D01*
Y307765D01*
X419186Y307949D01*
X419496Y308697D01*
X419601Y309500D01*
X419496Y310303D01*
X419186Y311051D01*
X418693Y311693D01*
X418051Y312186D01*
X417303Y312496D01*
X416500Y312601D01*
X415697Y312496D01*
X414949Y312186D01*
X414439Y311794D01*
X414061D01*
X413551Y312186D01*
X412803Y312496D01*
X412000Y312601D01*
X411197Y312496D01*
X410449Y312186D01*
X409807Y311693D01*
X409314Y311051D01*
X409004Y310303D01*
X408899Y309500D01*
X409004Y308697D01*
X409314Y307949D01*
X408172Y306974D01*
X400476Y314669D01*
Y317575D01*
X388815D01*
Y316794D01*
X315450D01*
X312294Y319950D01*
Y322148D01*
X313176Y322824D01*
X313890Y323754D01*
X314223Y324559D01*
X314888Y324688D01*
X315112D01*
X315777Y324559D01*
X316110Y323754D01*
X316824Y322824D01*
X317754Y322111D01*
X318838Y321662D01*
X320000Y321509D01*
X321162Y321662D01*
X322246Y322111D01*
X323176Y322824D01*
X323889Y323754D01*
X324223Y324559D01*
X324888Y324688D01*
X325112D01*
X325777Y324559D01*
X326111Y323754D01*
X326824Y322824D01*
X327754Y322111D01*
X328838Y321662D01*
X330000Y321509D01*
X331162Y321662D01*
X332246Y322111D01*
X333176Y322824D01*
X333890Y323754D01*
X334223Y324559D01*
X334888Y324688D01*
X335112D01*
X335777Y324559D01*
X336110Y323754D01*
X336824Y322824D01*
X337754Y322111D01*
X338838Y321662D01*
X340000Y321509D01*
X341162Y321662D01*
X342246Y322111D01*
X343176Y322824D01*
X343889Y323754D01*
X344223Y324559D01*
X344888Y324688D01*
X345112D01*
X345777Y324559D01*
X346111Y323754D01*
X346824Y322824D01*
X347754Y322111D01*
X348838Y321662D01*
X350000Y321509D01*
X351162Y321662D01*
X352246Y322111D01*
X353176Y322824D01*
X353889Y323754D01*
X354223Y324559D01*
X354888Y324688D01*
X355112D01*
X355777Y324559D01*
X356111Y323754D01*
X356824Y322824D01*
X357754Y322111D01*
X358838Y321662D01*
X360000Y321509D01*
X361162Y321662D01*
X362246Y322111D01*
X363176Y322824D01*
X363890Y323754D01*
X364223Y324559D01*
X364888Y324688D01*
X365112D01*
X365777Y324559D01*
X366110Y323754D01*
X366824Y322824D01*
X367754Y322111D01*
X368838Y321662D01*
X370000Y321509D01*
X371162Y321662D01*
X372246Y322111D01*
X373176Y322824D01*
X373889Y323754D01*
X374223Y324559D01*
X374888Y324688D01*
X375112D01*
X375777Y324559D01*
X376111Y323754D01*
X376824Y322824D01*
X377754Y322111D01*
X378838Y321662D01*
X380000Y321509D01*
X381162Y321662D01*
X382246Y322111D01*
X383176Y322824D01*
X383890Y323754D01*
X384223Y324559D01*
X384884Y324687D01*
X385114Y324687D01*
X385777Y324559D01*
X386110Y323755D01*
X386824Y322825D01*
X387754Y322111D01*
X388837Y321662D01*
X390000Y321509D01*
X391162Y321662D01*
X392245Y322111D01*
X393175Y322825D01*
X393889Y323755D01*
X394222Y324559D01*
X394892Y324689D01*
X395109Y324689D01*
D02*
G37*
G36*
X410449Y306814D02*
X411197Y306504D01*
X412000Y306399D01*
X412803Y306504D01*
X412956Y306568D01*
X414279Y305855D01*
X414456Y305622D01*
Y303575D01*
X414024D01*
Y297500D01*
X412500D01*
Y291049D01*
X410500D01*
Y297500D01*
X410044D01*
Y304152D01*
X409869Y305030D01*
X409372Y305774D01*
X410437Y306823D01*
X410449Y306814D01*
D02*
G37*
D10*
X456500Y264000D02*
Y272000D01*
X466500Y264000D02*
Y283000D01*
X461000Y288500D02*
X466500Y283000D01*
X409500Y288500D02*
X461000D01*
X408000Y287000D02*
X409500Y288500D01*
X407750Y283500D02*
X408000Y283750D01*
Y287000D01*
X411298Y283348D02*
X411450Y283500D01*
X411298Y276652D02*
Y283348D01*
X411146Y276500D02*
X411298Y276652D01*
D15*
X415250Y283500D02*
D03*
X411450D02*
D03*
Y293500D02*
D03*
X415250D02*
D03*
X407750D02*
D03*
Y283500D02*
D03*
D16*
X411291Y300500D02*
D03*
X417000D02*
D03*
X397500Y314500D02*
D03*
X391791D02*
D03*
X416854Y276500D02*
D03*
X411146D02*
D03*
Y271500D02*
D03*
X416854D02*
D03*
X514791Y405500D02*
D03*
X520500D02*
D03*
Y395500D02*
D03*
X514791D02*
D03*
Y385500D02*
D03*
X520500D02*
D03*
Y375500D02*
D03*
X514791D02*
D03*
Y365500D02*
D03*
X520500D02*
D03*
Y355500D02*
D03*
X514791D02*
D03*
Y345500D02*
D03*
X520500D02*
D03*
Y335500D02*
D03*
X514791D02*
D03*
D17*
X526500Y278209D02*
D03*
Y272500D02*
D03*
X521500Y272646D02*
D03*
Y278354D02*
D03*
X377500Y399146D02*
D03*
Y404854D02*
D03*
X372500Y399146D02*
D03*
Y404854D02*
D03*
X456500Y277709D02*
D03*
Y272000D02*
D03*
X466500Y246000D02*
D03*
Y240291D02*
D03*
X456500Y246000D02*
D03*
Y240291D02*
D03*
X427500Y262354D02*
D03*
Y256646D02*
D03*
X422500Y262354D02*
D03*
Y256646D02*
D03*
X417500Y262354D02*
D03*
Y256646D02*
D03*
X412500Y262354D02*
D03*
Y256646D02*
D03*
D24*
X411291Y300500D02*
Y303750D01*
X416750Y300750D02*
X417000Y300500D01*
X416750Y300750D02*
Y309250D01*
X416500Y309500D02*
X416750Y309250D01*
X412000Y309500D02*
X416500D01*
X418500Y283500D02*
X418500Y283500D01*
X415250Y283500D02*
X418500D01*
X520500Y385500D02*
X528500D01*
X466500Y236000D02*
Y240291D01*
X456500Y236000D02*
Y240291D01*
Y277709D02*
Y282500D01*
X370000Y417500D02*
X376500Y424000D01*
X383000D01*
X385000Y422000D01*
Y412256D02*
Y422000D01*
X377500Y404854D02*
X377598D01*
X385000Y412256D01*
X372500Y404854D02*
Y410000D01*
X380000Y417500D01*
X377500Y393354D02*
Y399146D01*
X372500Y393500D02*
Y399146D01*
X422500Y276500D02*
Y281000D01*
X416854Y271500D02*
Y276500D01*
X422500D01*
X418500Y293500D02*
X422500D01*
X415250D02*
X418500D01*
X415250Y293500D02*
X415250Y293500D01*
X411371Y293579D02*
X411450Y293500D01*
X411371Y293579D02*
Y300421D01*
X411291Y300500D02*
X411371Y300421D01*
X397500Y314402D02*
Y314500D01*
Y314402D02*
X407750Y304152D01*
Y293500D02*
Y304152D01*
X310000Y319000D02*
Y326000D01*
Y319000D02*
X314500Y314500D01*
X391791D01*
X510547Y365687D02*
X514838D01*
X510500Y339791D02*
Y340500D01*
Y339791D02*
X514791Y335500D01*
X510500Y405500D02*
X514791D01*
X510500Y395500D02*
X514791D01*
X510500Y385500D02*
X514791D01*
X510500Y375500D02*
X514791D01*
X510500Y355500D02*
X514791D01*
X510500Y345500D02*
X514791D01*
X520500Y405500D02*
X528500D01*
X520500Y395500D02*
X528500D01*
X520500Y375500D02*
X528500D01*
X520500Y365500D02*
X528500D01*
X520500Y355500D02*
X528500D01*
X520500Y345500D02*
X528500D01*
X520500Y335500D02*
X528500D01*
X526500Y278209D02*
Y299500D01*
X510000Y316000D02*
X526500Y299500D01*
X510000Y316000D02*
Y326000D01*
X500000D02*
X500703Y325297D01*
Y320797D02*
Y325297D01*
Y320797D02*
X521500Y300000D01*
Y278354D02*
Y300000D01*
X526500Y264000D02*
Y272500D01*
X521500Y259000D02*
Y272646D01*
Y259000D02*
X526500Y254000D01*
D25*
X392500Y266500D02*
Y304000D01*
Y266500D02*
X402354Y256646D01*
X412500D01*
X427500D02*
X433854D01*
X422500D02*
X427500D01*
X417500D02*
X422500D01*
X412500D02*
X417500D01*
X433854D02*
X436500Y254000D01*
X466500Y246000D02*
Y254000D01*
X456500Y246000D02*
Y254000D01*
X235000Y304000D02*
Y362000D01*
X260000Y387000D01*
Y417500D01*
D26*
X392500Y235000D02*
D03*
X450000Y417500D02*
D03*
X460000D02*
D03*
X470000D02*
D03*
X480000D02*
D03*
X490000D02*
D03*
X500000D02*
D03*
X510000D02*
D03*
X260000D02*
D03*
X280000D02*
D03*
X290000D02*
D03*
X300000D02*
D03*
X310000D02*
D03*
X320000D02*
D03*
X330000D02*
D03*
X340000D02*
D03*
X270000D02*
D03*
X350000D02*
D03*
X360000D02*
D03*
X370000D02*
D03*
X380000D02*
D03*
X390000Y417500D02*
D03*
X400000Y417500D02*
D03*
X410000D02*
D03*
X420000D02*
D03*
X430000D02*
D03*
X528500Y335500D02*
D03*
Y345500D02*
D03*
Y355500D02*
D03*
Y365500D02*
D03*
Y375500D02*
D03*
Y385500D02*
D03*
Y395500D02*
D03*
X392500Y304000D02*
D03*
X235000Y235000D02*
D03*
Y304000D02*
D03*
X486500Y264000D02*
D03*
Y254000D02*
D03*
X466500Y264000D02*
D03*
Y254000D02*
D03*
X436500Y264000D02*
D03*
X446500Y254000D02*
D03*
Y264000D02*
D03*
X456500Y254000D02*
D03*
Y264000D02*
D03*
X476500D02*
D03*
Y254000D02*
D03*
X496500D02*
D03*
Y264000D02*
D03*
X506500Y254000D02*
D03*
X516500D02*
D03*
X526500D02*
D03*
Y264000D02*
D03*
X516500D02*
D03*
X506500D02*
D03*
X430000Y326000D02*
D03*
X420000D02*
D03*
X410000D02*
D03*
X400000D02*
D03*
X390000Y326000D02*
D03*
X380000Y326000D02*
D03*
X370000D02*
D03*
X360000D02*
D03*
X350000D02*
D03*
X270000D02*
D03*
X340000D02*
D03*
X330000D02*
D03*
X320000D02*
D03*
X310000D02*
D03*
X300000D02*
D03*
X290000D02*
D03*
X280000D02*
D03*
X260000D02*
D03*
X510000D02*
D03*
X500000D02*
D03*
X490000D02*
D03*
X480000D02*
D03*
X470000D02*
D03*
X460000D02*
D03*
X450000D02*
D03*
D27*
X440000Y417500D02*
D03*
X250000D02*
D03*
X436500Y254000D02*
D03*
X250000Y326000D02*
D03*
X440000D02*
D03*
D28*
X528500Y405500D02*
D03*
D29*
X387000Y319000D02*
D03*
X380000D02*
D03*
X373000D02*
D03*
X366000D02*
D03*
X359000D02*
D03*
X352000D02*
D03*
X345000D02*
D03*
X338000D02*
D03*
X317000D02*
D03*
X331000D02*
D03*
X324000D02*
D03*
X411291Y303750D02*
D03*
X416500Y309500D02*
D03*
X412000D02*
D03*
X418500Y283500D02*
D03*
X466500Y236000D02*
D03*
X456500D02*
D03*
Y282500D02*
D03*
X377500Y393354D02*
D03*
X372500Y393500D02*
D03*
X422500Y281000D02*
D03*
Y276500D02*
D03*
Y293500D02*
D03*
X418500D02*
D03*
X510500Y340500D02*
D03*
Y405500D02*
D03*
Y395500D02*
D03*
Y385500D02*
D03*
Y375500D02*
D03*
X510547Y365687D02*
D03*
X510500Y355500D02*
D03*
Y345500D02*
D03*
D30*
X536000Y424000D02*
D03*
X540000Y416000D02*
D03*
X536000Y408000D02*
D03*
X540000Y400000D02*
D03*
Y384000D02*
D03*
Y368000D02*
D03*
Y352000D02*
D03*
Y336000D02*
D03*
Y320000D02*
D03*
Y304000D02*
D03*
Y288000D02*
D03*
Y272000D02*
D03*
Y256000D02*
D03*
Y240000D02*
D03*
X536000Y232000D02*
D03*
X528000Y424000D02*
D03*
X532000Y416000D02*
D03*
Y240000D02*
D03*
X528000Y232000D02*
D03*
X520000Y424000D02*
D03*
X524000Y416000D02*
D03*
Y240000D02*
D03*
X520000Y232000D02*
D03*
X512000Y424000D02*
D03*
X516000Y416000D02*
D03*
Y240000D02*
D03*
X512000Y232000D02*
D03*
X504000Y424000D02*
D03*
Y408000D02*
D03*
X508000Y400000D02*
D03*
Y240000D02*
D03*
X504000Y232000D02*
D03*
X496000Y424000D02*
D03*
Y408000D02*
D03*
X500000Y400000D02*
D03*
X496000Y392000D02*
D03*
X500000Y240000D02*
D03*
X496000Y232000D02*
D03*
X488000Y424000D02*
D03*
Y408000D02*
D03*
X492000Y400000D02*
D03*
X488000Y392000D02*
D03*
X492000Y384000D02*
D03*
X488000Y376000D02*
D03*
X492000Y368000D02*
D03*
X488000Y360000D02*
D03*
X492000Y352000D02*
D03*
X488000Y344000D02*
D03*
X492000Y336000D02*
D03*
Y240000D02*
D03*
X488000Y232000D02*
D03*
X480000Y424000D02*
D03*
Y408000D02*
D03*
X484000Y400000D02*
D03*
X480000Y392000D02*
D03*
X484000Y384000D02*
D03*
X480000Y376000D02*
D03*
X484000Y368000D02*
D03*
X480000Y360000D02*
D03*
X484000Y352000D02*
D03*
X480000Y344000D02*
D03*
X484000Y336000D02*
D03*
Y240000D02*
D03*
X480000Y232000D02*
D03*
X472000Y424000D02*
D03*
Y408000D02*
D03*
X476000Y400000D02*
D03*
X472000Y392000D02*
D03*
X476000Y384000D02*
D03*
X472000Y376000D02*
D03*
X476000Y368000D02*
D03*
X472000Y360000D02*
D03*
X476000Y352000D02*
D03*
X472000Y344000D02*
D03*
X476000Y336000D02*
D03*
X472000Y248000D02*
D03*
X476000Y240000D02*
D03*
X472000Y232000D02*
D03*
X464000Y424000D02*
D03*
Y408000D02*
D03*
X468000Y400000D02*
D03*
X464000Y392000D02*
D03*
X468000Y384000D02*
D03*
X464000Y376000D02*
D03*
X468000Y368000D02*
D03*
X464000Y360000D02*
D03*
X468000Y352000D02*
D03*
X464000Y344000D02*
D03*
X468000Y336000D02*
D03*
X464000Y232000D02*
D03*
X456000Y424000D02*
D03*
Y408000D02*
D03*
X460000Y400000D02*
D03*
X456000Y392000D02*
D03*
X460000Y384000D02*
D03*
X456000Y376000D02*
D03*
X460000Y368000D02*
D03*
X456000Y360000D02*
D03*
X460000Y352000D02*
D03*
X456000Y344000D02*
D03*
X460000Y336000D02*
D03*
X448000Y424000D02*
D03*
Y408000D02*
D03*
X452000Y400000D02*
D03*
X448000Y392000D02*
D03*
X452000Y384000D02*
D03*
X448000Y376000D02*
D03*
X452000Y368000D02*
D03*
X448000Y360000D02*
D03*
X452000Y352000D02*
D03*
X448000Y344000D02*
D03*
X452000Y336000D02*
D03*
X448000Y248000D02*
D03*
Y232000D02*
D03*
X440000Y424000D02*
D03*
Y408000D02*
D03*
X444000Y400000D02*
D03*
X440000Y392000D02*
D03*
X444000Y384000D02*
D03*
X440000Y376000D02*
D03*
X444000Y368000D02*
D03*
X440000Y360000D02*
D03*
X444000Y352000D02*
D03*
X440000Y344000D02*
D03*
X444000Y336000D02*
D03*
Y240000D02*
D03*
X440000Y232000D02*
D03*
X432000Y424000D02*
D03*
Y408000D02*
D03*
X436000Y400000D02*
D03*
X432000Y392000D02*
D03*
X436000Y384000D02*
D03*
X432000Y376000D02*
D03*
X436000Y368000D02*
D03*
X432000Y360000D02*
D03*
X436000Y352000D02*
D03*
X432000Y344000D02*
D03*
X436000Y336000D02*
D03*
X432000Y280000D02*
D03*
X436000Y272000D02*
D03*
Y240000D02*
D03*
X432000Y232000D02*
D03*
X424000Y424000D02*
D03*
Y408000D02*
D03*
X428000Y400000D02*
D03*
X424000Y392000D02*
D03*
X428000Y384000D02*
D03*
X424000Y376000D02*
D03*
X428000Y368000D02*
D03*
X424000Y360000D02*
D03*
X428000Y352000D02*
D03*
Y272000D02*
D03*
X424000Y248000D02*
D03*
X428000Y240000D02*
D03*
X424000Y232000D02*
D03*
X416000Y424000D02*
D03*
Y408000D02*
D03*
X420000Y400000D02*
D03*
X416000Y392000D02*
D03*
X420000Y384000D02*
D03*
X416000Y376000D02*
D03*
X420000Y368000D02*
D03*
X416000Y360000D02*
D03*
X420000Y352000D02*
D03*
X416000Y248000D02*
D03*
X420000Y240000D02*
D03*
X416000Y232000D02*
D03*
X408000Y424000D02*
D03*
Y408000D02*
D03*
X412000Y400000D02*
D03*
X408000Y392000D02*
D03*
X412000Y384000D02*
D03*
X408000Y376000D02*
D03*
X412000Y368000D02*
D03*
X408000Y344000D02*
D03*
X412000Y336000D02*
D03*
X408000Y264000D02*
D03*
Y248000D02*
D03*
X412000Y240000D02*
D03*
X408000Y232000D02*
D03*
X400000Y424000D02*
D03*
Y408000D02*
D03*
X404000Y400000D02*
D03*
X400000Y392000D02*
D03*
X404000Y384000D02*
D03*
X400000Y376000D02*
D03*
X404000Y368000D02*
D03*
X400000Y344000D02*
D03*
Y296000D02*
D03*
Y280000D02*
D03*
X404000Y272000D02*
D03*
X400000Y248000D02*
D03*
X404000Y240000D02*
D03*
X400000Y232000D02*
D03*
X392000Y424000D02*
D03*
Y408000D02*
D03*
X396000Y400000D02*
D03*
X392000Y392000D02*
D03*
X396000Y384000D02*
D03*
X392000Y360000D02*
D03*
X396000Y352000D02*
D03*
Y256000D02*
D03*
X392000Y248000D02*
D03*
X396000Y240000D02*
D03*
X388000Y400000D02*
D03*
X384000Y392000D02*
D03*
X388000Y384000D02*
D03*
X384000Y360000D02*
D03*
Y344000D02*
D03*
X388000Y336000D02*
D03*
X384000Y296000D02*
D03*
Y280000D02*
D03*
Y264000D02*
D03*
X388000Y256000D02*
D03*
X384000Y248000D02*
D03*
X388000Y240000D02*
D03*
X384000Y232000D02*
D03*
X376000Y376000D02*
D03*
X380000Y368000D02*
D03*
X376000Y344000D02*
D03*
X380000Y336000D02*
D03*
Y304000D02*
D03*
X376000Y296000D02*
D03*
X380000Y288000D02*
D03*
X376000Y280000D02*
D03*
X380000Y272000D02*
D03*
X376000Y264000D02*
D03*
X380000Y256000D02*
D03*
X376000Y248000D02*
D03*
X380000Y240000D02*
D03*
X376000Y232000D02*
D03*
X368000Y424000D02*
D03*
Y392000D02*
D03*
Y376000D02*
D03*
Y360000D02*
D03*
X372000Y352000D02*
D03*
X368000Y344000D02*
D03*
X372000Y336000D02*
D03*
Y304000D02*
D03*
X368000Y296000D02*
D03*
X372000Y288000D02*
D03*
X368000Y280000D02*
D03*
X372000Y272000D02*
D03*
X368000Y264000D02*
D03*
X372000Y256000D02*
D03*
X368000Y248000D02*
D03*
X372000Y240000D02*
D03*
X368000Y232000D02*
D03*
X360000Y424000D02*
D03*
Y408000D02*
D03*
X364000Y400000D02*
D03*
X360000Y392000D02*
D03*
X364000Y384000D02*
D03*
X360000Y360000D02*
D03*
X364000Y352000D02*
D03*
X360000Y344000D02*
D03*
X364000Y336000D02*
D03*
Y304000D02*
D03*
X360000Y296000D02*
D03*
X364000Y288000D02*
D03*
X360000Y280000D02*
D03*
X364000Y272000D02*
D03*
X360000Y264000D02*
D03*
X364000Y256000D02*
D03*
X360000Y248000D02*
D03*
X364000Y240000D02*
D03*
X360000Y232000D02*
D03*
X352000Y424000D02*
D03*
Y408000D02*
D03*
X356000Y400000D02*
D03*
X352000Y392000D02*
D03*
Y376000D02*
D03*
X356000Y368000D02*
D03*
X352000Y360000D02*
D03*
X356000Y352000D02*
D03*
X352000Y344000D02*
D03*
X356000Y336000D02*
D03*
Y304000D02*
D03*
X352000Y296000D02*
D03*
X356000Y288000D02*
D03*
X352000Y280000D02*
D03*
X356000Y272000D02*
D03*
X352000Y264000D02*
D03*
X356000Y256000D02*
D03*
X352000Y248000D02*
D03*
X356000Y240000D02*
D03*
X352000Y232000D02*
D03*
X344000Y424000D02*
D03*
Y408000D02*
D03*
X348000Y400000D02*
D03*
X344000Y376000D02*
D03*
X348000Y368000D02*
D03*
X344000Y360000D02*
D03*
X348000Y352000D02*
D03*
X344000Y344000D02*
D03*
X348000Y336000D02*
D03*
Y304000D02*
D03*
X344000Y296000D02*
D03*
X348000Y288000D02*
D03*
X344000Y280000D02*
D03*
X348000Y272000D02*
D03*
X344000Y264000D02*
D03*
X348000Y256000D02*
D03*
X344000Y248000D02*
D03*
X348000Y240000D02*
D03*
X344000Y232000D02*
D03*
X336000Y424000D02*
D03*
Y408000D02*
D03*
Y392000D02*
D03*
X340000Y384000D02*
D03*
X336000Y376000D02*
D03*
X340000Y368000D02*
D03*
X336000Y360000D02*
D03*
X340000Y352000D02*
D03*
X336000Y344000D02*
D03*
X340000Y336000D02*
D03*
Y304000D02*
D03*
X336000Y296000D02*
D03*
X340000Y288000D02*
D03*
X336000Y280000D02*
D03*
X340000Y272000D02*
D03*
X336000Y264000D02*
D03*
X340000Y256000D02*
D03*
X336000Y248000D02*
D03*
X340000Y240000D02*
D03*
X336000Y232000D02*
D03*
X328000Y424000D02*
D03*
Y408000D02*
D03*
Y392000D02*
D03*
X332000Y384000D02*
D03*
X328000Y376000D02*
D03*
X332000Y368000D02*
D03*
X328000Y360000D02*
D03*
X332000Y352000D02*
D03*
X328000Y344000D02*
D03*
X332000Y336000D02*
D03*
Y304000D02*
D03*
X328000Y296000D02*
D03*
X332000Y288000D02*
D03*
X328000Y280000D02*
D03*
X332000Y272000D02*
D03*
X328000Y264000D02*
D03*
X332000Y256000D02*
D03*
X328000Y248000D02*
D03*
X332000Y240000D02*
D03*
X328000Y232000D02*
D03*
X320000Y424000D02*
D03*
Y408000D02*
D03*
X324000Y400000D02*
D03*
X320000Y392000D02*
D03*
X324000Y384000D02*
D03*
X320000Y376000D02*
D03*
X324000Y368000D02*
D03*
X320000Y360000D02*
D03*
X324000Y352000D02*
D03*
X320000Y344000D02*
D03*
X324000Y336000D02*
D03*
Y304000D02*
D03*
X320000Y296000D02*
D03*
X324000Y288000D02*
D03*
X320000Y280000D02*
D03*
X324000Y272000D02*
D03*
X320000Y264000D02*
D03*
X324000Y256000D02*
D03*
X320000Y248000D02*
D03*
X324000Y240000D02*
D03*
X320000Y232000D02*
D03*
X312000Y424000D02*
D03*
Y408000D02*
D03*
X316000Y400000D02*
D03*
X312000Y392000D02*
D03*
X316000Y384000D02*
D03*
X312000Y376000D02*
D03*
X316000Y368000D02*
D03*
X312000Y360000D02*
D03*
X316000Y352000D02*
D03*
X312000Y344000D02*
D03*
X316000Y336000D02*
D03*
Y304000D02*
D03*
X312000Y296000D02*
D03*
X316000Y288000D02*
D03*
X312000Y280000D02*
D03*
X316000Y272000D02*
D03*
X312000Y264000D02*
D03*
X316000Y256000D02*
D03*
X312000Y248000D02*
D03*
X316000Y240000D02*
D03*
X312000Y232000D02*
D03*
X304000Y424000D02*
D03*
Y408000D02*
D03*
X308000Y400000D02*
D03*
X304000Y392000D02*
D03*
X308000Y384000D02*
D03*
X304000Y376000D02*
D03*
X308000Y368000D02*
D03*
X304000Y360000D02*
D03*
X308000Y352000D02*
D03*
X304000Y344000D02*
D03*
X308000Y336000D02*
D03*
X304000Y312000D02*
D03*
X308000Y304000D02*
D03*
X304000Y296000D02*
D03*
X308000Y288000D02*
D03*
X304000Y280000D02*
D03*
X308000Y272000D02*
D03*
X304000Y264000D02*
D03*
X308000Y256000D02*
D03*
X304000Y248000D02*
D03*
X308000Y240000D02*
D03*
X304000Y232000D02*
D03*
X296000Y424000D02*
D03*
Y408000D02*
D03*
X300000Y400000D02*
D03*
X296000Y392000D02*
D03*
X300000Y384000D02*
D03*
X296000Y376000D02*
D03*
X300000Y368000D02*
D03*
X296000Y360000D02*
D03*
X300000Y352000D02*
D03*
X296000Y344000D02*
D03*
X300000Y336000D02*
D03*
X296000Y312000D02*
D03*
X300000Y304000D02*
D03*
X296000Y296000D02*
D03*
X300000Y288000D02*
D03*
X296000Y280000D02*
D03*
X300000Y272000D02*
D03*
X296000Y264000D02*
D03*
X300000Y256000D02*
D03*
X296000Y248000D02*
D03*
X300000Y240000D02*
D03*
X296000Y232000D02*
D03*
X288000Y424000D02*
D03*
Y408000D02*
D03*
X292000Y400000D02*
D03*
X288000Y392000D02*
D03*
X292000Y384000D02*
D03*
X288000Y376000D02*
D03*
X292000Y368000D02*
D03*
X288000Y360000D02*
D03*
X292000Y352000D02*
D03*
X288000Y344000D02*
D03*
X292000Y336000D02*
D03*
Y320000D02*
D03*
X288000Y312000D02*
D03*
X292000Y304000D02*
D03*
X288000Y296000D02*
D03*
X292000Y288000D02*
D03*
X288000Y280000D02*
D03*
X292000Y272000D02*
D03*
X288000Y264000D02*
D03*
X292000Y256000D02*
D03*
X288000Y248000D02*
D03*
X292000Y240000D02*
D03*
X288000Y232000D02*
D03*
X280000Y424000D02*
D03*
Y408000D02*
D03*
X284000Y400000D02*
D03*
X280000Y392000D02*
D03*
X284000Y384000D02*
D03*
X280000Y376000D02*
D03*
X284000Y368000D02*
D03*
X280000Y360000D02*
D03*
X284000Y352000D02*
D03*
X280000Y344000D02*
D03*
X284000Y336000D02*
D03*
Y320000D02*
D03*
X280000Y312000D02*
D03*
X284000Y304000D02*
D03*
X280000Y296000D02*
D03*
X284000Y288000D02*
D03*
X280000Y280000D02*
D03*
X284000Y272000D02*
D03*
X280000Y264000D02*
D03*
X284000Y256000D02*
D03*
X280000Y248000D02*
D03*
X284000Y240000D02*
D03*
X280000Y232000D02*
D03*
X272000Y424000D02*
D03*
Y408000D02*
D03*
X276000Y400000D02*
D03*
X272000Y392000D02*
D03*
X276000Y384000D02*
D03*
X272000Y376000D02*
D03*
X276000Y368000D02*
D03*
X272000Y360000D02*
D03*
X276000Y352000D02*
D03*
X272000Y344000D02*
D03*
X276000Y336000D02*
D03*
Y320000D02*
D03*
X272000Y312000D02*
D03*
X276000Y304000D02*
D03*
X272000Y296000D02*
D03*
X276000Y288000D02*
D03*
X272000Y280000D02*
D03*
X276000Y272000D02*
D03*
X272000Y264000D02*
D03*
X276000Y256000D02*
D03*
X272000Y248000D02*
D03*
X276000Y240000D02*
D03*
X272000Y232000D02*
D03*
X264000Y424000D02*
D03*
X268000Y400000D02*
D03*
Y384000D02*
D03*
X264000Y376000D02*
D03*
X268000Y368000D02*
D03*
X264000Y360000D02*
D03*
X268000Y352000D02*
D03*
X264000Y344000D02*
D03*
X268000Y336000D02*
D03*
Y320000D02*
D03*
X264000Y312000D02*
D03*
X268000Y304000D02*
D03*
X264000Y296000D02*
D03*
X268000Y288000D02*
D03*
X264000Y280000D02*
D03*
X268000Y272000D02*
D03*
X264000Y264000D02*
D03*
X268000Y256000D02*
D03*
X264000Y248000D02*
D03*
X268000Y240000D02*
D03*
X264000Y232000D02*
D03*
X256000Y424000D02*
D03*
Y376000D02*
D03*
X260000Y368000D02*
D03*
X256000Y360000D02*
D03*
X260000Y352000D02*
D03*
X256000Y344000D02*
D03*
X260000Y336000D02*
D03*
X256000Y312000D02*
D03*
X260000Y304000D02*
D03*
X256000Y296000D02*
D03*
X260000Y288000D02*
D03*
X256000Y280000D02*
D03*
X260000Y272000D02*
D03*
X256000Y264000D02*
D03*
X260000Y256000D02*
D03*
X256000Y248000D02*
D03*
X260000Y240000D02*
D03*
X256000Y232000D02*
D03*
X248000Y424000D02*
D03*
Y408000D02*
D03*
X252000Y400000D02*
D03*
X248000Y392000D02*
D03*
X252000Y368000D02*
D03*
X248000Y360000D02*
D03*
X252000Y352000D02*
D03*
X248000Y344000D02*
D03*
X252000Y336000D02*
D03*
Y320000D02*
D03*
X248000Y312000D02*
D03*
X252000Y304000D02*
D03*
X248000Y296000D02*
D03*
X252000Y288000D02*
D03*
X248000Y280000D02*
D03*
X252000Y272000D02*
D03*
X248000Y264000D02*
D03*
X252000Y256000D02*
D03*
X248000Y248000D02*
D03*
X252000Y240000D02*
D03*
X248000Y232000D02*
D03*
X240000Y424000D02*
D03*
Y408000D02*
D03*
X244000Y400000D02*
D03*
X240000Y392000D02*
D03*
X244000Y384000D02*
D03*
X240000Y376000D02*
D03*
Y360000D02*
D03*
X244000Y352000D02*
D03*
X240000Y344000D02*
D03*
X244000Y336000D02*
D03*
X240000Y328000D02*
D03*
X244000Y320000D02*
D03*
X240000Y312000D02*
D03*
X244000Y304000D02*
D03*
X240000Y296000D02*
D03*
X244000Y288000D02*
D03*
X240000Y280000D02*
D03*
X244000Y272000D02*
D03*
X240000Y264000D02*
D03*
X244000Y256000D02*
D03*
X240000Y248000D02*
D03*
X244000Y240000D02*
D03*
X240000Y232000D02*
D03*
X232000Y424000D02*
D03*
X236000Y416000D02*
D03*
X232000Y408000D02*
D03*
X236000Y400000D02*
D03*
X232000Y392000D02*
D03*
X236000Y384000D02*
D03*
X232000Y376000D02*
D03*
Y296000D02*
D03*
X236000Y288000D02*
D03*
X232000Y280000D02*
D03*
X236000Y272000D02*
D03*
X232000Y264000D02*
D03*
X236000Y256000D02*
D03*
X232000Y248000D02*
D03*
X236000Y240000D02*
D03*
X224000Y424000D02*
D03*
X228000Y416000D02*
D03*
X224000Y408000D02*
D03*
X228000Y400000D02*
D03*
X224000Y392000D02*
D03*
X228000Y384000D02*
D03*
X224000Y376000D02*
D03*
X228000Y368000D02*
D03*
X224000Y360000D02*
D03*
X228000Y352000D02*
D03*
X224000Y344000D02*
D03*
X228000Y336000D02*
D03*
X224000Y328000D02*
D03*
X228000Y320000D02*
D03*
X224000Y312000D02*
D03*
X228000Y304000D02*
D03*
X224000Y296000D02*
D03*
X228000Y288000D02*
D03*
X224000Y280000D02*
D03*
X228000Y272000D02*
D03*
X224000Y264000D02*
D03*
X228000Y256000D02*
D03*
X224000Y248000D02*
D03*
X228000Y240000D02*
D03*
X224000Y232000D02*
D03*
M02*
