G04*
G04 #@! TF.GenerationSoftware,Altium Limited,Altium Designer,20.0.13 (296)*
G04*
G04 Layer_Color=8421504*
%FSLAX25Y25*%
%MOIN*%
G70*
G01*
G75*
%ADD15R,0.02500X0.05000*%
%ADD16R,0.02953X0.03150*%
%ADD17R,0.03150X0.02953*%
D15*
X415250Y283500D02*
D03*
X411450D02*
D03*
Y293500D02*
D03*
X415250D02*
D03*
X407750D02*
D03*
Y283500D02*
D03*
D16*
X411291Y300500D02*
D03*
X417000D02*
D03*
X397500Y314500D02*
D03*
X391791D02*
D03*
X416854Y276500D02*
D03*
X411146D02*
D03*
Y271500D02*
D03*
X416854D02*
D03*
X514791Y405500D02*
D03*
X520500D02*
D03*
Y395500D02*
D03*
X514791D02*
D03*
Y385500D02*
D03*
X520500D02*
D03*
Y375500D02*
D03*
X514791D02*
D03*
Y365500D02*
D03*
X520500D02*
D03*
Y355500D02*
D03*
X514791D02*
D03*
Y345500D02*
D03*
X520500D02*
D03*
Y335500D02*
D03*
X514791D02*
D03*
D17*
X526500Y278209D02*
D03*
Y272500D02*
D03*
X521500Y272646D02*
D03*
Y278354D02*
D03*
X377500Y399146D02*
D03*
Y404854D02*
D03*
X372500Y399146D02*
D03*
Y404854D02*
D03*
X456500Y277709D02*
D03*
Y272000D02*
D03*
X466500Y246000D02*
D03*
Y240291D02*
D03*
X456500Y246000D02*
D03*
Y240291D02*
D03*
X427500Y262354D02*
D03*
Y256646D02*
D03*
X422500Y262354D02*
D03*
Y256646D02*
D03*
X417500Y262354D02*
D03*
Y256646D02*
D03*
X412500Y262354D02*
D03*
Y256646D02*
D03*
M02*
