M48
;Layer_Color=9474304
;FILE_FORMAT=2:5
INCH,TZ
;TYPE=PLATED
T1F00S00C0.01181
T2F00S00C0.03543
%
T01
X472000Y232000
X480000
X488000
X496000
X504000
X512000
X520000
X528000
X536000
X540000Y240000
X532000
X524000
X516000
X508000
X500000
X492000
X484000
X476000
X472000Y248000
X540000Y256000
Y272000
Y288000
Y304000
X456500Y282500
X432000Y280000
X422500Y281000
Y276500
X428000Y272000
X436000
X418500Y283500
Y293500
X422500
X411291Y303750
X412000Y309500
X416500
X400000Y296000
Y280000
X404000Y272000
X408000Y264000
Y248000
X416000
X424000
X428000Y240000
X436000
X444000
X448000Y248000
Y232000
X440000
X432000
X424000
X416000
X408000
X400000
X404000Y240000
X412000
X420000
X396000
X388000
X380000
X372000
X364000
X356000
X348000
X340000
X332000
X324000
X316000
X320000Y248000
X328000
X336000
X344000
X352000
X360000
X368000
X376000
X384000
X392000
X400000
X396000Y256000
X388000
X380000
X372000
X364000
X356000
X348000
X340000
X332000
X324000
X316000
X320000Y264000
X328000
X336000
X344000
X352000
X360000
X368000
X376000
X384000
X380000Y272000
X372000
X364000
X356000
X348000
X340000
X332000
X324000
X316000
X320000Y280000
X328000
X336000
X344000
X352000
X360000
X368000
X376000
X384000
X380000Y288000
X372000
X364000
X356000
X348000
X340000
X332000
X324000
X316000
X320000Y296000
X328000
X336000
X344000
X352000
X360000
X368000
X376000
X384000
X380000Y304000
X372000
X364000
X356000
X348000
X340000
X332000
X324000
X316000
X320000Y232000
X328000
X336000
X344000
X352000
X360000
X368000
X376000
X384000
X456500Y236000
X466500
X464000Y232000
X312000
X304000
X296000
X288000
X280000
X272000
X264000
X256000
X248000
X240000
X244000Y240000
X252000
X260000
X268000
X276000
X284000
X292000
X300000
X308000
X312000Y248000
X304000
X296000
X288000
X280000
X272000
X264000
X256000
X248000
X240000
X232000
X224000
X228000Y256000
X236000
X244000
X252000
X260000
X268000
X276000
X284000
X292000
X300000
X308000
X312000Y264000
X304000
X296000
X288000
X280000
X272000
X264000
X256000
X248000
X240000
X232000
X224000
X228000Y272000
X236000
X244000
X252000
X260000
X268000
X276000
X284000
X292000
X300000
X308000
X312000Y280000
X304000
X296000
X288000
X280000
X272000
X264000
X256000
X248000
X240000
X232000
X224000
X228000Y288000
X236000
X244000
X252000
X260000
X268000
X276000
X284000
X292000
X300000
X308000
X312000Y296000
X304000
X296000
X288000
X280000
X272000
X264000
X256000
X248000
X240000
X232000
X224000
X228000Y304000
X224000Y312000
X240000
X248000
X256000
X264000
X272000
X280000
X288000
X296000
X304000
X308000Y304000
X300000
X292000
X284000
X276000
X268000
X260000
X252000
X244000
X236000Y240000
X228000
X224000Y232000
X228000Y320000
X224000Y328000
X228000Y336000
X224000Y344000
X228000Y352000
X224000Y360000
X228000Y368000
X232000Y376000
X240000
X244000Y384000
X236000
X228000
X232000Y392000
X240000
X248000
X252000Y400000
X244000
X236000
X228000
X232000Y408000
X240000
X248000
Y424000
X256000
X264000
X272000
X280000
X288000
X296000
X304000
X312000
Y408000
X304000
X296000
X288000
X280000
X272000
X276000Y400000
X284000
X292000
X300000
X308000
X312000Y392000
X304000
X296000
X288000
X280000
X272000
X276000Y384000
X284000
X292000
X300000
X308000
X312000Y376000
X304000
X296000
X288000
X280000
X272000
X264000
X256000
X260000Y368000
X268000
X276000
X284000
X292000
X300000
X308000
X312000Y360000
X304000
X296000
X288000
X280000
X272000
X264000
X256000
X248000
X240000
X244000Y352000
X252000
X260000
X268000
X276000
X284000
X292000
X300000
X308000
X312000Y344000
X304000
X296000
X288000
X280000
X272000
X264000
X256000
X248000
X240000
X244000Y336000
X252000
X260000
X268000
X276000
X284000
X292000
X300000
X308000
X292000Y320000
X284000
X276000
X268000
X252000
X244000
X240000Y328000
X252000Y368000
X268000Y384000
Y400000
X236000Y416000
X228000
X232000Y424000
X240000
X224000
Y408000
Y392000
Y376000
X320000
X328000
X336000
X344000
X352000
X356000Y368000
X348000
X340000
X332000
X324000
X316000
X320000Y360000
X328000
X336000
X344000
X352000
X360000
X368000
X372000Y352000
X364000
X356000
X348000
X340000
X332000
X324000
X316000
X320000Y344000
X328000
X336000
X344000
X352000
X360000
X368000
X376000
X384000
X388000Y336000
X380000
X372000
X364000
X356000
X348000
X340000
X332000
X324000
X316000
X317000Y319000
X324000
X331000
X338000
X345000
X352000
X359000
X366000
X373000
X380000
X387000
X400000Y344000
X408000
X412000Y336000
X436000
X444000
X452000
X460000
X468000
X464000Y344000
X456000
X448000
X440000
X432000
X436000Y352000
X444000
X452000
X460000
X468000
X464000Y360000
X456000
X448000
X440000
X432000
X424000
X416000
X420000Y368000
X428000
X436000
X444000
X452000
X460000
X468000
X464000Y376000
X456000
X448000
X440000
X432000
X424000
X416000
X408000
X400000
X404000Y384000
X412000
X420000
X428000
X436000
X444000
X452000
X460000
X468000
X464000Y392000
X456000
X448000
X440000
X432000
X424000
X416000
X408000
X400000
X392000
X384000
X377500Y393354
X372500Y393500
X368000Y392000
X360000
X352000
X356000Y400000
X364000
X360000Y408000
X352000
X344000
X336000
X328000
X320000
X324000Y400000
X316000
X320000Y392000
X328000
X336000
X340000Y384000
X332000
X324000
X316000
X320000Y424000
X328000
X336000
X344000
X352000
X360000
X368000
X392000
X400000
X408000
X416000
X424000
X432000
X440000
X448000
X456000
X464000
Y408000
X456000
X448000
X440000
X432000
X424000
X416000
X408000
X400000
X392000
X396000Y400000
X404000
X412000
X420000
X428000
X436000
X444000
X452000
X460000
X468000
X388000
Y384000
X396000
X404000Y368000
X412000
X420000Y352000
X428000
X396000
X392000Y360000
X384000
X380000Y368000
X376000Y376000
X368000
X364000Y384000
X348000Y400000
X476000
X484000
X492000
X500000
X508000
X510500Y395500
Y405500
X504000Y408000
X496000
X488000
X480000
X472000
Y424000
X480000
X488000
X496000
X504000
X512000
X520000
X528000
X536000
X540000Y416000
X532000
X524000
X516000
X536000Y408000
X540000Y400000
Y384000
Y368000
Y352000
Y336000
Y320000
X510500Y340500
Y345500
Y355500
X510547Y365687
X510500Y375500
Y385500
X492000Y384000
X484000
X476000
X480000Y392000
X488000
X496000
X488000Y376000
X480000
X472000
X476000Y368000
X484000
X492000
X488000Y360000
X480000
X472000
X476000Y352000
X484000
X492000
X488000Y344000
X480000
X472000
X476000Y336000
X484000
X492000
X472000Y392000
T02
X476500Y254000
X486500
Y264000
X476500
X496500
Y254000
X506500
X516500
X526500
Y264000
X516500
X506500
X466500
Y254000
X456500
X446500
X436500
Y264000
X446500
X456500
X392500Y235000
Y304000
X235000
Y235000
X250000Y326000
X260000
X270000
X280000
X290000
X300000
X310000
Y417500
X300000
X290000
X280000
X270000
X260000
X250000
X320000
X330000
X340000
X350000
X360000
X370000
X380000
X390000Y417500
X400000Y417500
X410000
X420000
X430000
X440000
X450000
X460000
Y326000
X450000
X440000
X430000
X420000
X410000
X400000
X390000Y326000
X380000Y326000
X370000
X360000
X350000
X340000
X330000
X320000
X470000
X480000
X490000
X500000
X510000
X528500Y335500
Y345500
Y355500
Y365500
Y375500
Y385500
Y395500
Y405500
X510000Y417500
X500000
X490000
X480000
X470000
M30
